{
  "accessors": [
    {
      "bufferView": 2,
      "componentType": 5126,
      "count": 28183,
      "max": [
        0.32232001423835754,
        0.7409899830818176,
        0.4594539999961853
      ],
      "min": [
        -0.32232001423835754,
        -0.7409899830818176,
        -0.4594539999961853
      ],
      "type": "VEC3"
    },
    {
      "bufferView": 2,
      "byteOffset": 338196,
      "componentType": 5126,
      "count": 28183,
      "max": [
        0.9999854564666748,
        0.9995832443237305,
        0.9999703764915466
      ],
      "min": [
        -0.9999886155128479,
        -0.9996811151504517,
        -0.9999342560768127
      ],
      "type": "VEC3"
    },
    {
      "bufferView": 1,
      "componentType": 5126,
      "count": 28183,
      "max": [
        0.9993900060653687,
        0.9993900060653687
      ],
      "min": [
        0.0006099999882280827,
        0.0006099999882280827
      ],
      "type": "VEC2"
    },
    {
      "bufferView": 0,
      "componentType": 5125,
      "count": 149994,
      "type": "SCALAR"
    }
  ],
  "asset": {
    "extras": {
      "author": "Andrea Spognetta (Spogna) (https://sketchfab.com/spogna)",
      "license": "CC-BY-4.0 (http://creativecommons.org/licenses/by/4.0/)",
      "source": "https://sketchfab.com/3d-models/rock-stone-11-rawscan-98cfb014188245a984d174c294a494b7",
      "title": "Rock Stone 11 .::RAWscan::."
    },
    "generator": "Sketchfab-12.67.0",
    "version": "2.0"
  },
  "bufferViews": [
    {
      "buffer": 0,
      "byteLength": 599976,
      "name": "floatBufferViews",
      "target": 34963
    },
    {
      "buffer": 0,
      "byteLength": 225464,
      "byteOffset": 599976,
      "byteStride": 8,
      "name": "floatBufferViews",
      "target": 34962
    },
    {
      "buffer": 0,
      "byteLength": 676392,
      "byteOffset": 825440,
      "byteStride": 12,
      "name": "floatBufferViews",
      "target": 34962
    }
  ],
  "buffers": [
    {
      "byteLength": 1501832,
      "uri": "scene.bin"
    }
  ],
  "images": [
    {
      "uri": "textures/material_0_baseColor.jpeg"
    },
    {
      "uri": "textures/material_0_metallicRoughness.png"
    }
  ],
  "materials": [
    {
      "doubleSided": true,
      "name": "material_0",
      "occlusionTexture": {
        "index": 1
      },
      "pbrMetallicRoughness": {
        "baseColorTexture": {
          "index": 0
        },
        "metallicFactor": 0.0,
        "metallicRoughnessTexture": {
          "index": 1
        },
        "roughnessFactor": 0.7123287671232876
      }
    }
  ],
  "meshes": [
    {
      "name": "Object_0",
      "primitives": [
        {
          "attributes": {
            "NORMAL": 1,
            "POSITION": 0,
            "TEXCOORD_0": 2
          },
          "indices": 3,
          "material": 0,
          "mode": 4
        }
      ]
    }
  ],
  "nodes": [
    {
      "children": [
        1
      ],
      "matrix": [
        4.440892098500626e-16,
        -1.0,
        -4.440892098500626e-16,
        0.0,
        -1.0,
        -4.4408920985006257e-16,
        -2.220446049250314e-16,
        0.0,
        2.220446049250313e-16,
        4.440892098500626e-16,
        -1.0,
        0.0,
        4.470348358154297e-07,
        7.30156898498535e-07,
        2.8312206268310563e-07,
        1.0
      ],
      "name": "Sketchfab_model"
    },
    {
      "children": [
        2
      ],
      "name": "sasso.obj.cleaner.materialmerger.gles"
    },
    {
      "mesh": 0,
      "name": "Object_2"
    }
  ],
  "samplers": [
    {
      "magFilter": 9729,
      "minFilter": 9987,
      "wrapS": 10497,
      "wrapT": 10497
    }
  ],
  "scene": 0,
  "scenes": [
    {
      "name": "Sketchfab_Scene",
      "nodes": [
        0
      ]
    }
  ],
  "textures": [
    {
      "sampler": 0,
      "source": 0
    },
    {
      "sampler": 0,
      "source": 1
    }
  ]
}
