{
  "accessors": [
    {
      "bufferView": 2,
      "componentType": 5126,
      "count": 487,
      "max": [
        6.1083855628967285,
        9.108696937561035,
        5.238795280456543
      ],
      "min": [
        -5.839519023895264,
        -0.7303546667098999,
        -8.546191215515137
      ],
      "type": "VEC3"
    },
    {
      "bufferView": 2,
      "byteOffset": 5844,
      "componentType": 5126,
      "count": 487,
      "max": [
        0.9914116263389587,
        0.9972653388977051,
        0.9945970177650452
      ],
      "min": [
        -0.9992662668228149,
        -0.9994735717773438,
        -0.9977216124534607
      ],
      "type": "VEC3"
    },
    {
      "bufferView": 3,
      "componentType": 5126,
      "count": 487,
      "max": [
        0.8415204286575317,
        0.8213686347007751,
        0.9956956505775452,
        1.0
      ],
      "min": [
        -0.9792044758796692,
        -0.9991645216941833,
        -0.9904106855392456,
        1.0
      ],
      "type": "VEC4"
    },
    {
      "bufferView": 1,
      "componentType": 5126,
      "count": 487,
      "max": [
        0.9980990886688232,
        0.996099591255188
      ],
      "min": [
        0.001895129680633545,
        0.0018988036317750812
      ],
      "type": "VEC2"
    },
    {
      "bufferView": 0,
      "componentType": 5125,
      "count": 2304,
      "type": "SCALAR"
    }
  ],
  "asset": {
    "extras": {
      "author": "Harri Snellman (https://sketchfab.com/rivetech)",
      "license": "CC-BY-4.0 (http://creativecommons.org/licenses/by/4.0/)",
      "source": "https://sketchfab.com/3d-models/gold-nugget-5ccc72d43f0e4dc5ad5ef8eeb93cf3b0",
      "title": "Gold Nugget"
    },
    "generator": "Sketchfab-12.68.0",
    "version": "2.0"
  },
  "bufferViews": [
    {
      "buffer": 0,
      "byteLength": 9216,
      "name": "floatBufferViews",
      "target": 34963
    },
    {
      "buffer": 0,
      "byteLength": 3896,
      "byteOffset": 9216,
      "byteStride": 8,
      "name": "floatBufferViews",
      "target": 34962
    },
    {
      "buffer": 0,
      "byteLength": 11688,
      "byteOffset": 13112,
      "byteStride": 12,
      "name": "floatBufferViews",
      "target": 34962
    },
    {
      "buffer": 0,
      "byteLength": 7792,
      "byteOffset": 24800,
      "byteStride": 16,
      "name": "floatBufferViews",
      "target": 34962
    }
  ],
  "buffers": [
    {
      "byteLength": 32592,
      "uri": "scene.bin"
    }
  ],
  "images": [
    {
      "uri": "textures/GoldNugget_baseColor.png"
    },
    {
      "uri": "textures/GoldNugget_metallicRoughness.png"
    },
    {
      "uri": "textures/GoldNugget_normal.png"
    }
  ],
  "materials": [
    {
      "doubleSided": true,
      "name": "GoldNugget",
      "normalTexture": {
        "index": 2
      },
      "pbrMetallicRoughness": {
        "baseColorTexture": {
          "index": 0
        },
        "metallicRoughnessTexture": {
          "index": 1
        },
        "roughnessFactor": 0.3300393995220984
      }
    }
  ],
  "meshes": [
    {
      "name": "GoldNugget_GoldNugget_0",
      "primitives": [
        {
          "attributes": {
            "NORMAL": 1,
            "POSITION": 0,
            "TANGENT": 2,
            "TEXCOORD_0": 3
          },
          "indices": 4,
          "material": 0,
          "mode": 4
        }
      ]
    }
  ],
  "nodes": [
    {
      "children": [
        1
      ],
      "matrix": [
        1.0,
        0.0,
        0.0,
        0.0,
        0.0,
        2.220446049250313e-16,
        -1.0,
        0.0,
        0.0,
        1.0,
        2.220446049250313e-16,
        0.0,
        0.0,
        0.0,
        0.0,
        1.0
      ],
      "name": "Sketchfab_model"
    },
    {
      "children": [
        2
      ],
      "matrix": [
        0.009999999776482582,
        0.0,
        0.0,
        0.0,
        0.0,
        0.0,
        0.009999999776482582,
        0.0,
        0.0,
        -0.009999999776482582,
        0.0,
        0.0,
        0.0,
        0.0,
        0.0,
        1.0
      ],
      "name": "07fb29b16c254d99b0ee40eda5b4e15f.fbx"
    },
    {
      "children": [
        3
      ],
      "name": "RootNode"
    },
    {
      "children": [
        4
      ],
      "name": "GoldNugget"
    },
    {
      "mesh": 0,
      "name": "GoldNugget_GoldNugget_0"
    }
  ],
  "samplers": [
    {
      "magFilter": 9729,
      "minFilter": 9987,
      "wrapS": 10497,
      "wrapT": 10497
    }
  ],
  "scene": 0,
  "scenes": [
    {
      "name": "Sketchfab_Scene",
      "nodes": [
        0
      ]
    }
  ],
  "textures": [
    {
      "sampler": 0,
      "source": 0
    },
    {
      "sampler": 0,
      "source": 1
    },
    {
      "sampler": 0,
      "source": 2
    }
  ]
}
