{
  "accessors": [
    {
      "bufferView": 2,
      "componentType": 5126,
      "count": 65532,
      "max": [
        0.040237605571746826,
        0.03304580599069595,
        0.06295251846313477
      ],
      "min": [
        -0.06319569051265717,
        -0.041195522993803024,
        0.00018109381198883057
      ],
      "type": "VEC3"
    },
    {
      "bufferView": 2,
      "byteOffset": 786384,
      "componentType": 5126,
      "count": 65532,
      "max": [
        0.9999159574508667,
        0.9982304573059082,
        0.9999767541885376
      ],
      "min": [
        -0.9999980926513672,
        -0.9999995827674866,
        -0.9999982714653015
      ],
      "type": "VEC3"
    },
    {
      "bufferView": 1,
      "componentType": 5126,
      "count": 65532,
      "max": [
        0.9994983077049255,
        0.9858397245407104
      ],
      "min": [
        0.00048828125,
        0.0005963040748611093
      ],
      "type": "VEC2"
    },
    {
      "bufferView": 0,
      "componentType": 5125,
      "count": 263901,
      "type": "SCALAR"
    },
    {
      "bufferView": 2,
      "byteOffset": 1572768,
      "componentType": 5126,
      "count": 65532,
      "max": [
        0.01649658754467964,
        0.041985347867012024,
        0.05419895052909851
      ],
      "min": [
        -0.06319569051265717,
        -0.04119991138577461,
        -0.00018434226512908936
      ],
      "type": "VEC3"
    },
    {
      "bufferView": 2,
      "byteOffset": 2359152,
      "componentType": 5126,
      "count": 65532,
      "max": [
        0.9986255764961243,
        0.9999918937683105,
        0.9999900460243225
      ],
      "min": [
        -0.9999880790710449,
        -0.9999842643737793,
        -0.9999939203262329
      ],
      "type": "VEC3"
    },
    {
      "bufferView": 1,
      "byteOffset": 524256,
      "componentType": 5126,
      "count": 65532,
      "max": [
        0.9994809031486511,
        0.9877928495407104
      ],
      "min": [
        0.00048828125,
        0.0004784060874953866
      ],
      "type": "VEC2"
    },
    {
      "bufferView": 0,
      "byteOffset": 1055604,
      "componentType": 5125,
      "count": 233934,
      "type": "SCALAR"
    },
    {
      "bufferView": 2,
      "byteOffset": 3145536,
      "componentType": 5126,
      "count": 65532,
      "max": [
        0.03410280868411064,
        0.04249186813831329,
        0.05729620158672333
      ],
      "min": [
        -0.06127948313951492,
        -0.04113832488656044,
        -0.0004173964262008667
      ],
      "type": "VEC3"
    },
    {
      "bufferView": 2,
      "byteOffset": 3931920,
      "componentType": 5126,
      "count": 65532,
      "max": [
        0.9999885559082031,
        0.9999701976776123,
        0.9999851584434509
      ],
      "min": [
        -0.9998257160186768,
        -0.999873161315918,
        -0.9999982714653015
      ],
      "type": "VEC3"
    },
    {
      "bufferView": 1,
      "byteOffset": 1048512,
      "componentType": 5126,
      "count": 65532,
      "max": [
        0.9994930624961853,
        0.9897459745407104
      ],
      "min": [
        0.00048828125,
        0.0004887772956863046
      ],
      "type": "VEC2"
    },
    {
      "bufferView": 0,
      "byteOffset": 1991340,
      "componentType": 5125,
      "count": 234762,
      "type": "SCALAR"
    },
    {
      "bufferView": 2,
      "byteOffset": 4718304,
      "componentType": 5126,
      "count": 55149,
      "max": [
        0.03920174390077591,
        0.04249186813831329,
        0.06295251846313477
      ],
      "min": [
        -0.022710958495736122,
        -0.04084952548146248,
        0.011288344860076904
      ],
      "type": "VEC3"
    },
    {
      "bufferView": 2,
      "byteOffset": 5380092,
      "componentType": 5126,
      "count": 55149,
      "max": [
        0.9990556836128235,
        0.9999979138374329,
        0.9999949932098389
      ],
      "min": [
        -0.9999102354049683,
        -0.9998929500579834,
        -0.9993101954460144
      ],
      "type": "VEC3"
    },
    {
      "bufferView": 1,
      "byteOffset": 1572768,
      "componentType": 5126,
      "count": 55149,
      "max": [
        0.9995114803314209,
        0.9897459745407104
      ],
      "min": [
        0.00048828125,
        0.0004900885978713632
      ],
      "type": "VEC2"
    },
    {
      "bufferView": 0,
      "byteOffset": 2930388,
      "componentType": 5125,
      "count": 167373,
      "type": "SCALAR"
    }
  ],
  "asset": {
    "extras": {
      "author": "evolkov (https://sketchfab.com/evolkov)",
      "license": "CC-BY-NC-4.0 (http://creativecommons.org/licenses/by-nc/4.0/)",
      "source": "https://sketchfab.com/3d-models/amethyst-cluster-scan-52d2f1aa86b1433a8387d6376d094e88",
      "title": "Amethyst Cluster Scan"
    },
    "generator": "Sketchfab-15.24.0",
    "version": "2.0"
  },
  "bufferViews": [
    {
      "buffer": 0,
      "byteLength": 3599880,
      "name": "floatBufferViews",
      "target": 34963
    },
    {
      "buffer": 0,
      "byteLength": 2013960,
      "byteOffset": 3599880,
      "byteStride": 8,
      "name": "floatBufferViews",
      "target": 34962
    },
    {
      "buffer": 0,
      "byteLength": 6041880,
      "byteOffset": 5613840,
      "byteStride": 12,
      "name": "floatBufferViews",
      "target": 34962
    }
  ],
  "buffers": [
    {
      "byteLength": 11655720,
      "uri": "scene.bin"
    }
  ],
  "extensionsUsed": [
    "KHR_materials_unlit"
  ],
  "images": [
    {
      "uri": "textures/tex_u1_v1_baseColor.jpeg"
    }
  ],
  "materials": [
    {
      "doubleSided": true,
      "extensions": {
        "KHR_materials_unlit": {}
      },
      "name": "tex_u1_v1",
      "pbrMetallicRoughness": {
        "baseColorTexture": {
          "index": 0
        },
        "metallicFactor": 0.0
      }
    }
  ],
  "meshes": [
    {
      "name": "Object_0",
      "primitives": [
        {
          "attributes": {
            "NORMAL": 1,
            "POSITION": 0,
            "TEXCOORD_0": 2
          },
          "indices": 3,
          "material": 0,
          "mode": 4
        }
      ]
    },
    {
      "name": "Object_1",
      "primitives": [
        {
          "attributes": {
            "NORMAL": 5,
            "POSITION": 4,
            "TEXCOORD_0": 6
          },
          "indices": 7,
          "material": 0,
          "mode": 4
        }
      ]
    },
    {
      "name": "Object_2",
      "primitives": [
        {
          "attributes": {
            "NORMAL": 9,
            "POSITION": 8,
            "TEXCOORD_0": 10
          },
          "indices": 11,
          "material": 0,
          "mode": 4
        }
      ]
    },
    {
      "name": "Object_3",
      "primitives": [
        {
          "attributes": {
            "NORMAL": 13,
            "POSITION": 12,
            "TEXCOORD_0": 14
          },
          "indices": 15,
          "material": 0,
          "mode": 4
        }
      ]
    }
  ],
  "nodes": [
    {
      "children": [
        1
      ],
      "matrix": [
        -2.220446049250313e-16,
        2.220446049250313e-16,
        -1.0,
        0.0,
        -1.0,
        -4.930380657631324e-32,
        2.220446049250313e-16,
        0.0,
        0.0,
        1.0,
        2.220446049250313e-16,
        0.0,
        0.0,
        0.0,
        0.0,
        1.0
      ],
      "name": "Sketchfab_model"
    },
    {
      "children": [
        2,
        3,
        4,
        5
      ],
      "name": "model.obj.cleaner.materialmerger.gles"
    },
    {
      "mesh": 0,
      "name": "Object_2"
    },
    {
      "mesh": 1,
      "name": "Object_3"
    },
    {
      "mesh": 2,
      "name": "Object_4"
    },
    {
      "mesh": 3,
      "name": "Object_5"
    }
  ],
  "samplers": [
    {
      "magFilter": 9729,
      "minFilter": 9987,
      "wrapS": 10497,
      "wrapT": 10497
    }
  ],
  "scene": 0,
  "scenes": [
    {
      "name": "Sketchfab_Scene",
      "nodes": [
        0
      ]
    }
  ],
  "textures": [
    {
      "sampler": 0,
      "source": 0
    }
  ]
}
