{
  "accessors": [
    {
      "bufferView": 2,
      "componentType": 5126,
      "count": 65532,
      "max": [
        13.935491561889648,
        14.746379852294922,
        18.594804763793945
      ],
      "min": [
        -17.499191284179688,
        -13.455771446228027,
        -0.37128257751464844
      ],
      "type": "VEC3"
    },
    {
      "bufferView": 2,
      "byteOffset": 786384,
      "componentType": 5126,
      "count": 65532,
      "max": [
        0.9999448657035828,
        0.9999473094940186,
        0.9999697804450989
      ],
      "min": [
        -0.9997731447219849,
        -0.999962568283081,
        -0.9999948740005493
      ],
      "type": "VEC3"
    },
    {
      "bufferView": 1,
      "componentType": 5126,
      "count": 65532,
      "max": [
        0.9997559785842896,
        0.9997559785842896
      ],
      "min": [
        0.00024399999529123306,
        0.00024500000290572643
      ],
      "type": "VEC2"
    },
    {
      "bufferView": 0,
      "componentType": 5125,
      "count": 275733,
      "type": "SCALAR"
    },
    {
      "bufferView": 2,
      "byteOffset": 1572768,
      "componentType": 5126,
      "count": 65532,
      "max": [
        13.85986614227295,
        14.501205444335938,
        18.578407287597656
      ],
      "min": [
        -17.410066604614258,
        -14.096443176269531,
        -0.22794246673583984
      ],
      "type": "VEC3"
    },
    {
      "bufferView": 2,
      "byteOffset": 2359152,
      "componentType": 5126,
      "count": 65532,
      "max": [
        0.9999915957450867,
        0.9999455809593201,
        0.9999997019767761
      ],
      "min": [
        -0.9999792575836182,
        -0.9999569058418274,
        -0.9999903440475464
      ],
      "type": "VEC3"
    },
    {
      "bufferView": 1,
      "byteOffset": 524256,
      "componentType": 5126,
      "count": 65532,
      "max": [
        0.9997559785842896,
        0.9997559785842896
      ],
      "min": [
        0.00024399999529123306,
        0.5002440214157104
      ],
      "type": "VEC2"
    },
    {
      "bufferView": 0,
      "byteOffset": 1102932,
      "componentType": 5125,
      "count": 253947,
      "type": "SCALAR"
    },
    {
      "bufferView": 2,
      "byteOffset": 3145536,
      "componentType": 5126,
      "count": 21030,
      "max": [
        13.829761505126953,
        14.760433197021484,
        16.81547737121582
      ],
      "min": [
        -16.750621795654297,
        -13.83803653717041,
        -0.37128257751464844
      ],
      "type": "VEC3"
    },
    {
      "bufferView": 2,
      "byteOffset": 3397896,
      "componentType": 5126,
      "count": 21030,
      "max": [
        0.9995055198669434,
        0.9997775554656982,
        0.9998733997344971
      ],
      "min": [
        -0.9972556233406067,
        -0.9999209046363831,
        -0.9997629523277283
      ],
      "type": "VEC3"
    },
    {
      "bufferView": 1,
      "byteOffset": 1048512,
      "componentType": 5126,
      "count": 21030,
      "max": [
        0.9997559785842896,
        0.9997559785842896
      ],
      "min": [
        0.5002440214157104,
        0.5002440214157104
      ],
      "type": "VEC2"
    },
    {
      "bufferView": 0,
      "byteOffset": 2118720,
      "componentType": 5125,
      "count": 70320,
      "type": "SCALAR"
    }
  ],
  "asset": {
    "extras": {
      "author": "EDUROCK – EDUCATIONAL VIRTUAL ROCK COLLECTION (https://sketchfab.com/EDUROCK_AALTO)",
      "license": "CC-BY-4.0 (http://creativecommons.org/licenses/by/4.0/)",
      "source": "https://sketchfab.com/3d-models/cassiterite-1d1f30b819cc4332bc1553fa1e2bbda6",
      "title": "Cassiterite"
    },
    "generator": "Sketchfab-12.68.0",
    "version": "2.0"
  },
  "bufferViews": [
    {
      "buffer": 0,
      "byteLength": 2400000,
      "name": "floatBufferViews",
      "target": 34963
    },
    {
      "buffer": 0,
      "byteLength": 1216752,
      "byteOffset": 2400000,
      "byteStride": 8,
      "name": "floatBufferViews",
      "target": 34962
    },
    {
      "buffer": 0,
      "byteLength": 3650256,
      "byteOffset": 3616752,
      "byteStride": 12,
      "name": "floatBufferViews",
      "target": 34962
    }
  ],
  "buffers": [
    {
      "byteLength": 7267008,
      "uri": "scene.bin"
    }
  ],
  "extensionsUsed": [
    "KHR_materials_unlit"
  ],
  "images": [
    {
      "uri": "textures/model_Material_u1_v1_baseColor.jpeg"
    }
  ],
  "materials": [
    {
      "doubleSided": true,
      "extensions": {
        "KHR_materials_unlit": {}
      },
      "name": "model_Material_u1_v1",
      "pbrMetallicRoughness": {
        "baseColorTexture": {
          "index": 0
        },
        "metallicFactor": 0.0
      }
    }
  ],
  "meshes": [
    {
      "name": "Object_0",
      "primitives": [
        {
          "attributes": {
            "NORMAL": 1,
            "POSITION": 0,
            "TEXCOORD_0": 2
          },
          "indices": 3,
          "material": 0,
          "mode": 4
        }
      ]
    },
    {
      "name": "Object_1",
      "primitives": [
        {
          "attributes": {
            "NORMAL": 5,
            "POSITION": 4,
            "TEXCOORD_0": 6
          },
          "indices": 7,
          "material": 0,
          "mode": 4
        }
      ]
    },
    {
      "name": "Object_2",
      "primitives": [
        {
          "attributes": {
            "NORMAL": 9,
            "POSITION": 8,
            "TEXCOORD_0": 10
          },
          "indices": 11,
          "material": 0,
          "mode": 4
        }
      ]
    }
  ],
  "nodes": [
    {
      "children": [
        1
      ],
      "matrix": [
        1.0,
        0.0,
        0.0,
        0.0,
        0.0,
        2.220446049250313e-16,
        -1.0,
        0.0,
        0.0,
        1.0,
        2.220446049250313e-16,
        0.0,
        0.0,
        0.0,
        0.0,
        1.0
      ],
      "name": "Sketchfab_model"
    },
    {
      "children": [
        2,
        3,
        4
      ],
      "name": "model.obj.cleaner.materialmerger.gles"
    },
    {
      "mesh": 0,
      "name": "Object_2"
    },
    {
      "mesh": 1,
      "name": "Object_3"
    },
    {
      "mesh": 2,
      "name": "Object_4"
    }
  ],
  "samplers": [
    {
      "magFilter": 9729,
      "minFilter": 9987,
      "wrapS": 10497,
      "wrapT": 10497
    }
  ],
  "scene": 0,
  "scenes": [
    {
      "name": "Sketchfab_Scene",
      "nodes": [
        0
      ]
    }
  ],
  "textures": [
    {
      "sampler": 0,
      "source": 0
    }
  ]
}
