{
  "accessors": [
    {
      "bufferView": 2,
      "componentType": 5126,
      "count": 200,
      "max": [
        2.0629539489746094,
        -1.6701350212097168,
        4.026352882385254
      ],
      "min": [
        0.49679601192474365,
        -3.387399911880493,
        3.145198106765747
      ],
      "type": "VEC3"
    },
    {
      "bufferView": 2,
      "byteOffset": 2400,
      "componentType": 5126,
      "count": 200,
      "max": [
        1.0,
        0.9554975032806396,
        0.3723042905330658
      ],
      "min": [
        -1.0,
        -0.9554975032806396,
        -0.3723042905330658
      ],
      "type": "VEC3"
    },
    {
      "bufferView": 1,
      "componentType": 5126,
      "count": 200,
      "max": [
        0.0,
        0.0
      ],
      "min": [
        0.0,
        0.0
      ],
      "type": "VEC2"
    },
    {
      "bufferView": 0,
      "componentType": 5125,
      "count": 504,
      "type": "SCALAR"
    },
    {
      "bufferView": 2,
      "byteOffset": 4800,
      "componentType": 5126,
      "count": 1738,
      "max": [
        2.088179111480713,
        2.9661219120025635,
        2.4984889030456543
      ],
      "min": [
        -2.1004550457000732,
        -4.1605730056762695,
        0.8096510171890259
      ],
      "type": "VEC3"
    },
    {
      "bufferView": 2,
      "byteOffset": 25656,
      "componentType": 5126,
      "count": 1738,
      "max": [
        1.0,
        1.0,
        1.0
      ],
      "min": [
        -1.0,
        -1.0,
        -1.0
      ],
      "type": "VEC3"
    },
    {
      "bufferView": 3,
      "componentType": 5126,
      "count": 1738,
      "max": [
        1.0,
        1.0,
        1.0,
        1.0
      ],
      "min": [
        -1.0,
        -1.0,
        -1.0,
        -1.0
      ],
      "type": "VEC4"
    },
    {
      "bufferView": 1,
      "byteOffset": 1600,
      "componentType": 5126,
      "count": 1738,
      "max": [
        0.9987379908561707,
        0.9987999796867371
      ],
      "min": [
        0.0011909999884665012,
        0.0011909999884665012
      ],
      "type": "VEC2"
    },
    {
      "bufferView": 0,
      "byteOffset": 2016,
      "componentType": 5125,
      "count": 5037,
      "type": "SCALAR"
    },
    {
      "bufferView": 2,
      "byteOffset": 46512,
      "componentType": 5126,
      "count": 2609,
      "max": [
        2.8481149673461914,
        0.6984189748764038,
        3.675261974334717
      ],
      "min": [
        -2.1298201084136963,
        -4.052786827087402,
        0.7326840162277222
      ],
      "type": "VEC3"
    },
    {
      "bufferView": 2,
      "byteOffset": 77820,
      "componentType": 5126,
      "count": 2609,
      "max": [
        1.0,
        1.0,
        1.0
      ],
      "min": [
        -1.0,
        -1.0,
        -1.0
      ],
      "type": "VEC3"
    },
    {
      "bufferView": 3,
      "byteOffset": 27808,
      "componentType": 5126,
      "count": 2609,
      "max": [
        1.0,
        1.0,
        1.0,
        1.0
      ],
      "min": [
        -1.0,
        -1.0,
        -1.0,
        1.0
      ],
      "type": "VEC4"
    },
    {
      "bufferView": 1,
      "byteOffset": 15504,
      "componentType": 5126,
      "count": 2609,
      "max": [
        1.2727869749069214,
        0.9980239868164063
      ],
      "min": [
        -0.2530980110168457,
        0.0014959999825805426
      ],
      "type": "VEC2"
    },
    {
      "bufferView": 0,
      "byteOffset": 22164,
      "componentType": 5125,
      "count": 10398,
      "type": "SCALAR"
    },
    {
      "bufferView": 2,
      "byteOffset": 109128,
      "componentType": 5126,
      "count": 7444,
      "max": [
        2.8216960430145264,
        3.2970991134643555,
        2.60876202583313
      ],
      "min": [
        -2.3361430168151855,
        -4.021210193634033,
        -0.01013300009071827
      ],
      "type": "VEC3"
    },
    {
      "bufferView": 2,
      "byteOffset": 198456,
      "componentType": 5126,
      "count": 7444,
      "max": [
        1.0,
        1.0,
        1.0
      ],
      "min": [
        -1.0,
        -1.0,
        -1.0
      ],
      "type": "VEC3"
    },
    {
      "bufferView": 3,
      "byteOffset": 69552,
      "componentType": 5126,
      "count": 7444,
      "max": [
        1.0,
        1.0,
        1.0,
        1.0
      ],
      "min": [
        -1.0,
        -1.0,
        -1.0,
        -1.0
      ],
      "type": "VEC4"
    },
    {
      "bufferView": 1,
      "byteOffset": 36376,
      "componentType": 5126,
      "count": 7444,
      "max": [
        1.9976789951324463,
        0.9870820045471191
      ],
      "min": [
        0.001496999990195036,
        0.001496999990195036
      ],
      "type": "VEC2"
    },
    {
      "bufferView": 0,
      "byteOffset": 63756,
      "componentType": 5125,
      "count": 31029,
      "type": "SCALAR"
    },
    {
      "bufferView": 2,
      "byteOffset": 287784,
      "componentType": 5126,
      "count": 390,
      "max": [
        2.0291988849639893,
        2.649662971496582,
        2.1535630226135254
      ],
      "min": [
        -2.0414741039276123,
        -3.751012086868286,
        1.7166529893875122
      ],
      "type": "VEC3"
    },
    {
      "bufferView": 2,
      "byteOffset": 292464,
      "componentType": 5126,
      "count": 390,
      "max": [
        1.0,
        0.9694971442222595,
        1.0
      ],
      "min": [
        -1.0,
        -1.0,
        -1.0
      ],
      "type": "VEC3"
    },
    {
      "bufferView": 3,
      "byteOffset": 188656,
      "componentType": 5126,
      "count": 390,
      "max": [
        1.0,
        1.0,
        1.0,
        1.0
      ],
      "min": [
        -1.0,
        -1.0,
        -1.0,
        -1.0
      ],
      "type": "VEC4"
    },
    {
      "bufferView": 1,
      "byteOffset": 95928,
      "componentType": 5126,
      "count": 390,
      "max": [
        1.9716750383377075,
        0.9824169874191284
      ],
      "min": [
        0.0011630000080913305,
        0.0011699999449774623
      ],
      "type": "VEC2"
    },
    {
      "bufferView": 0,
      "byteOffset": 187872,
      "componentType": 5125,
      "count": 1560,
      "type": "SCALAR"
    },
    {
      "bufferView": 2,
      "byteOffset": 297144,
      "componentType": 5126,
      "count": 3612,
      "max": [
        2.684011936187744,
        5.226913928985596,
        4.512904167175293
      ],
      "min": [
        -2.5164198875427246,
        -3.496129035949707,
        1.8741810321807861
      ],
      "type": "VEC3"
    },
    {
      "bufferView": 2,
      "byteOffset": 340488,
      "componentType": 5126,
      "count": 3612,
      "max": [
        1.0,
        1.0,
        1.0
      ],
      "min": [
        -1.0,
        -1.0,
        -1.0
      ],
      "type": "VEC3"
    },
    {
      "bufferView": 3,
      "byteOffset": 194896,
      "componentType": 5126,
      "count": 3612,
      "max": [
        1.0,
        1.0,
        1.0,
        1.0
      ],
      "min": [
        -1.0,
        -1.0,
        -1.0,
        -1.0
      ],
      "type": "VEC4"
    },
    {
      "bufferView": 1,
      "byteOffset": 99048,
      "componentType": 5126,
      "count": 3612,
      "max": [
        0.9982550144195557,
        0.9907670021057129
      ],
      "min": [
        0.0017450000159442425,
        0.001744000008329749
      ],
      "type": "VEC2"
    },
    {
      "bufferView": 0,
      "byteOffset": 194112,
      "componentType": 5125,
      "count": 9708,
      "type": "SCALAR"
    },
    {
      "bufferView": 2,
      "byteOffset": 383832,
      "componentType": 5126,
      "count": 6001,
      "max": [
        2.539335012435913,
        2.727515935897827,
        4.177815914154053
      ],
      "min": [
        -2.1367650032043457,
        -4.170016765594482,
        0.6113880276679993
      ],
      "type": "VEC3"
    },
    {
      "bufferView": 2,
      "byteOffset": 455844,
      "componentType": 5126,
      "count": 6001,
      "max": [
        1.0,
        1.0,
        1.0
      ],
      "min": [
        -1.0,
        -1.0,
        -1.0
      ],
      "type": "VEC3"
    },
    {
      "bufferView": 3,
      "byteOffset": 252688,
      "componentType": 5126,
      "count": 6001,
      "max": [
        1.0,
        1.0,
        1.0,
        1.0
      ],
      "min": [
        -1.0,
        -1.0,
        -1.0,
        -1.0
      ],
      "type": "VEC4"
    },
    {
      "bufferView": 1,
      "byteOffset": 127944,
      "componentType": 5126,
      "count": 6001,
      "max": [
        0.9991959929466248,
        0.9939879775047302
      ],
      "min": [
        0.0007949999999254942,
        0.0007949999999254942
      ],
      "type": "VEC2"
    },
    {
      "bufferView": 0,
      "byteOffset": 232944,
      "componentType": 5125,
      "count": 20358,
      "type": "SCALAR"
    },
    {
      "bufferView": 2,
      "byteOffset": 527856,
      "componentType": 5126,
      "count": 1007,
      "max": [
        2.0572509765625,
        -1.3164069652557373,
        4.111780166625977
      ],
      "min": [
        0.502498984336853,
        -3.3813090324401855,
        2.608760118484497
      ],
      "type": "VEC3"
    },
    {
      "bufferView": 2,
      "byteOffset": 539940,
      "componentType": 5126,
      "count": 1007,
      "max": [
        1.0,
        1.0,
        1.0
      ],
      "min": [
        -1.0,
        -1.0,
        -1.0
      ],
      "type": "VEC3"
    },
    {
      "bufferView": 3,
      "byteOffset": 348704,
      "componentType": 5126,
      "count": 1007,
      "max": [
        1.0,
        1.0,
        1.0,
        1.0
      ],
      "min": [
        -1.0,
        -1.0,
        -1.0,
        1.0
      ],
      "type": "VEC4"
    },
    {
      "bufferView": 1,
      "byteOffset": 175952,
      "componentType": 5126,
      "count": 1007,
      "max": [
        0.9986389875411987,
        0.9794080257415771
      ],
      "min": [
        0.0013520000502467155,
        0.0013599999947473407
      ],
      "type": "VEC2"
    },
    {
      "bufferView": 0,
      "byteOffset": 314376,
      "componentType": 5125,
      "count": 3510,
      "type": "SCALAR"
    }
  ],
  "asset": {
    "extras": {
      "author": "drcrazzie (https://sketchfab.com/drcrazzie)",
      "license": "CC-BY-4.0 (http://creativecommons.org/licenses/by/4.0/)",
      "source": "https://sketchfab.com/3d-models/komatsu-hd-465-7eo-2bf4dcd62e484f01bcb446af263bd65c",
      "title": "KOMATSU HD-465-7EO"
    },
    "generator": "Sketchfab-14.15.0",
    "version": "2.0"
  },
  "bufferViews": [
    {
      "buffer": 0,
      "byteLength": 328416,
      "name": "floatBufferViews",
      "target": 34963
    },
    {
      "buffer": 0,
      "byteLength": 184008,
      "byteOffset": 328416,
      "byteStride": 8,
      "name": "floatBufferViews",
      "target": 34962
    },
    {
      "buffer": 0,
      "byteLength": 552024,
      "byteOffset": 512424,
      "byteStride": 12,
      "name": "floatBufferViews",
      "target": 34962
    },
    {
      "buffer": 0,
      "byteLength": 364816,
      "byteOffset": 1064448,
      "byteStride": 16,
      "name": "floatBufferViews",
      "target": 34962
    }
  ],
  "buffers": [
    {
      "byteLength": 1429264,
      "uri": "scene.bin"
    }
  ],
  "images": [
    {
      "uri": "textures/Body_baseColor.png"
    },
    {
      "uri": "textures/Body_metallicRoughness.png"
    },
    {
      "uri": "textures/Body_normal.png"
    },
    {
      "uri": "textures/DumpBed_baseColor.png"
    },
    {
      "uri": "textures/DumpBed_metallicRoughness.png"
    },
    {
      "uri": "textures/DumpBed_normal.png"
    },
    {
      "uri": "textures/Engine_baseColor.png"
    },
    {
      "uri": "textures/Engine_metallicRoughness.png"
    },
    {
      "uri": "textures/Engine_normal.png"
    },
    {
      "uri": "textures/Frame_baseColor.png"
    },
    {
      "uri": "textures/Frame_metallicRoughness.png"
    },
    {
      "uri": "textures/Frame_normal.png"
    },
    {
      "uri": "textures/Interior_baseColor.png"
    },
    {
      "uri": "textures/Interior_metallicRoughness.png"
    },
    {
      "uri": "textures/Interior_normal.png"
    },
    {
      "uri": "textures/Lights_baseColor.png"
    },
    {
      "uri": "textures/Lights_metallicRoughness.png"
    },
    {
      "uri": "textures/Lights_normal.png"
    },
    {
      "uri": "textures/UnderCarriage_baseColor.png"
    },
    {
      "uri": "textures/UnderCarriage_metallicRoughness.png"
    },
    {
      "uri": "textures/UnderCarriage_normal.png"
    }
  ],
  "materials": [
    {
      "doubleSided": true,
      "name": "Body",
      "normalTexture": {
        "index": 2
      },
      "occlusionTexture": {
        "index": 1
      },
      "pbrMetallicRoughness": {
        "baseColorTexture": {
          "index": 0
        },
        "metallicRoughnessTexture": {
          "index": 1
        }
      }
    },
    {
      "doubleSided": true,
      "name": "DumpBed",
      "normalTexture": {
        "index": 5
      },
      "occlusionTexture": {
        "index": 4
      },
      "pbrMetallicRoughness": {
        "baseColorTexture": {
          "index": 3
        },
        "metallicRoughnessTexture": {
          "index": 4
        }
      }
    },
    {
      "doubleSided": true,
      "name": "Engine",
      "normalTexture": {
        "index": 8
      },
      "occlusionTexture": {
        "index": 7
      },
      "pbrMetallicRoughness": {
        "baseColorTexture": {
          "index": 6
        },
        "metallicRoughnessTexture": {
          "index": 7
        }
      }
    },
    {
      "doubleSided": true,
      "name": "Frame",
      "normalTexture": {
        "index": 11
      },
      "occlusionTexture": {
        "index": 10
      },
      "pbrMetallicRoughness": {
        "baseColorTexture": {
          "index": 9
        },
        "metallicRoughnessTexture": {
          "index": 10
        }
      }
    },
    {
      "doubleSided": true,
      "name": "Interior",
      "normalTexture": {
        "index": 14
      },
      "occlusionTexture": {
        "index": 13
      },
      "pbrMetallicRoughness": {
        "baseColorTexture": {
          "index": 12
        },
        "metallicRoughnessTexture": {
          "index": 13
        }
      }
    },
    {
      "doubleSided": true,
      "name": "Lights",
      "normalTexture": {
        "index": 17
      },
      "occlusionTexture": {
        "index": 16
      },
      "pbrMetallicRoughness": {
        "baseColorTexture": {
          "index": 15
        },
        "metallicRoughnessTexture": {
          "index": 16
        }
      }
    },
    {
      "alphaMode": "BLEND",
      "doubleSided": true,
      "name": "Material",
      "pbrMetallicRoughness": {
        "baseColorFactor": [
          0.2307903924940071,
          0.2307903924940071,
          0.2307903924940071,
          0.5836208262729943
        ],
        "roughnessFactor": 0.0
      }
    },
    {
      "doubleSided": true,
      "name": "UnderCarriage",
      "normalTexture": {
        "index": 20
      },
      "occlusionTexture": {
        "index": 19
      },
      "pbrMetallicRoughness": {
        "baseColorTexture": {
          "index": 18
        },
        "metallicRoughnessTexture": {
          "index": 19
        }
      }
    }
  ],
  "meshes": [
    {
      "name": "Object_0",
      "primitives": [
        {
          "attributes": {
            "NORMAL": 1,
            "POSITION": 0,
            "TEXCOORD_0": 2
          },
          "indices": 3,
          "material": 6,
          "mode": 4
        }
      ]
    },
    {
      "name": "Object_1",
      "primitives": [
        {
          "attributes": {
            "NORMAL": 5,
            "POSITION": 4,
            "TANGENT": 6,
            "TEXCOORD_0": 7
          },
          "indices": 8,
          "material": 3,
          "mode": 4
        }
      ]
    },
    {
      "name": "Object_2",
      "primitives": [
        {
          "attributes": {
            "NORMAL": 10,
            "POSITION": 9,
            "TANGENT": 11,
            "TEXCOORD_0": 12
          },
          "indices": 13,
          "material": 2,
          "mode": 4
        }
      ]
    },
    {
      "name": "Object_3",
      "primitives": [
        {
          "attributes": {
            "NORMAL": 15,
            "POSITION": 14,
            "TANGENT": 16,
            "TEXCOORD_0": 17
          },
          "indices": 18,
          "material": 7,
          "mode": 4
        }
      ]
    },
    {
      "name": "Object_4",
      "primitives": [
        {
          "attributes": {
            "NORMAL": 20,
            "POSITION": 19,
            "TANGENT": 21,
            "TEXCOORD_0": 22
          },
          "indices": 23,
          "material": 5,
          "mode": 4
        }
      ]
    },
    {
      "name": "Object_5",
      "primitives": [
        {
          "attributes": {
            "NORMAL": 25,
            "POSITION": 24,
            "TANGENT": 26,
            "TEXCOORD_0": 27
          },
          "indices": 28,
          "material": 1,
          "mode": 4
        }
      ]
    },
    {
      "name": "Object_6",
      "primitives": [
        {
          "attributes": {
            "NORMAL": 30,
            "POSITION": 29,
            "TANGENT": 31,
            "TEXCOORD_0": 32
          },
          "indices": 33,
          "material": 0,
          "mode": 4
        }
      ]
    },
    {
      "name": "Object_7",
      "primitives": [
        {
          "attributes": {
            "NORMAL": 35,
            "POSITION": 34,
            "TANGENT": 36,
            "TEXCOORD_0": 37
          },
          "indices": 38,
          "material": 4,
          "mode": 4
        }
      ]
    }
  ],
  "nodes": [
    {
      "children": [
        1
      ],
      "matrix": [
        1.0,
        0.0,
        0.0,
        0.0,
        0.0,
        2.220446049250313e-16,
        -1.0,
        0.0,
        0.0,
        1.0,
        2.220446049250313e-16,
        0.0,
        0.0,
        0.0,
        0.0,
        1.0
      ],
      "name": "Sketchfab_model"
    },
    {
      "children": [
        2,
        3,
        4,
        5,
        6,
        7,
        8,
        9
      ],
      "name": "Komatsu 2.obj.cleaner.materialmerger.gles"
    },
    {
      "mesh": 0,
      "name": "Object_2"
    },
    {
      "mesh": 1,
      "name": "Object_3"
    },
    {
      "mesh": 2,
      "name": "Object_4"
    },
    {
      "mesh": 3,
      "name": "Object_5"
    },
    {
      "mesh": 4,
      "name": "Object_6"
    },
    {
      "mesh": 5,
      "name": "Object_7"
    },
    {
      "mesh": 6,
      "name": "Object_8"
    },
    {
      "mesh": 7,
      "name": "Object_9"
    }
  ],
  "samplers": [
    {
      "magFilter": 9729,
      "minFilter": 9987,
      "wrapS": 10497,
      "wrapT": 10497
    }
  ],
  "scene": 0,
  "scenes": [
    {
      "name": "Sketchfab_Scene",
      "nodes": [
        0
      ]
    }
  ],
  "textures": [
    {
      "sampler": 0,
      "source": 0
    },
    {
      "sampler": 0,
      "source": 1
    },
    {
      "sampler": 0,
      "source": 2
    },
    {
      "sampler": 0,
      "source": 3
    },
    {
      "sampler": 0,
      "source": 4
    },
    {
      "sampler": 0,
      "source": 5
    },
    {
      "sampler": 0,
      "source": 6
    },
    {
      "sampler": 0,
      "source": 7
    },
    {
      "sampler": 0,
      "source": 8
    },
    {
      "sampler": 0,
      "source": 9
    },
    {
      "sampler": 0,
      "source": 10
    },
    {
      "sampler": 0,
      "source": 11
    },
    {
      "sampler": 0,
      "source": 12
    },
    {
      "sampler": 0,
      "source": 13
    },
    {
      "sampler": 0,
      "source": 14
    },
    {
      "sampler": 0,
      "source": 15
    },
    {
      "sampler": 0,
      "source": 16
    },
    {
      "sampler": 0,
      "source": 17
    },
    {
      "sampler": 0,
      "source": 18
    },
    {
      "sampler": 0,
      "source": 19
    },
    {
      "sampler": 0,
      "source": 20
    }
  ]
}
