{
  "accessors": [
    {
      "bufferView": 2,
      "componentType": 5126,
      "count": 65532,
      "max": [
        3.999809980392456,
        4.115548133850098,
        4.437070846557617
      ],
      "min": [
        -4.05352783203125,
        -4.108418941497803,
        -4.076487064361572
      ],
      "type": "VEC3"
    },
    {
      "bufferView": 2,
      "byteOffset": 786384,
      "componentType": 5126,
      "count": 65532,
      "max": [
        0.9999961853027344,
        0.9998917579650879,
        0.9982688426971436
      ],
      "min": [
        -0.9999758005142212,
        -0.9999890327453613,
        -1.0
      ],
      "type": "VEC3"
    },
    {
      "bufferView": 1,
      "componentType": 5126,
      "count": 65532,
      "max": [
        0.993848979473114,
        0.9931889772415161
      ],
      "min": [
        0.0006329999887384474,
        0.0006769999745301902
      ],
      "type": "VEC2"
    },
    {
      "bufferView": 0,
      "componentType": 5125,
      "count": 213186,
      "type": "SCALAR"
    },
    {
      "bufferView": 2,
      "byteOffset": 1572768,
      "componentType": 5126,
      "count": 65534,
      "max": [
        4.003215789794922,
        4.094703197479248,
        4.444443225860596
      ],
      "min": [
        -3.9646708965301514,
        -4.113810062408447,
        -4.076487064361572
      ],
      "type": "VEC3"
    },
    {
      "bufferView": 2,
      "byteOffset": 2359176,
      "componentType": 5126,
      "count": 65534,
      "max": [
        0.9998663663864136,
        0.9998977184295654,
        0.9999649524688721
      ],
      "min": [
        -0.9997398257255554,
        -0.9999890327453613,
        -0.9996097683906555
      ],
      "type": "VEC3"
    },
    {
      "bufferView": 1,
      "byteOffset": 524256,
      "componentType": 5126,
      "count": 65534,
      "max": [
        0.9985809922218323,
        0.9990419745445251
      ],
      "min": [
        0.00013499999477062374,
        0.00013499999477062374
      ],
      "type": "VEC2"
    },
    {
      "bufferView": 0,
      "byteOffset": 852744,
      "componentType": 5125,
      "count": 189657,
      "type": "SCALAR"
    },
    {
      "bufferView": 2,
      "byteOffset": 3145584,
      "componentType": 5126,
      "count": 24109,
      "max": [
        4.003164768218994,
        4.112151145935059,
        4.4416961669921875
      ],
      "min": [
        -4.014787197113037,
        -4.092246055603027,
        -4.076487064361572
      ],
      "type": "VEC3"
    },
    {
      "bufferView": 2,
      "byteOffset": 3434892,
      "componentType": 5126,
      "count": 24109,
      "max": [
        0.9998888969421387,
        0.999951958656311,
        0.99864262342453
      ],
      "min": [
        -0.9997228980064392,
        -0.9999076128005981,
        -0.9992522597312927
      ],
      "type": "VEC3"
    },
    {
      "bufferView": 1,
      "byteOffset": 1048528,
      "componentType": 5126,
      "count": 24109,
      "max": [
        0.990975022315979,
        0.9893509745597839
      ],
      "min": [
        0.0057299998588860035,
        0.006089000031352043
      ],
      "type": "VEC2"
    },
    {
      "bufferView": 0,
      "byteOffset": 1611372,
      "componentType": 5125,
      "count": 40029,
      "type": "SCALAR"
    }
  ],
  "asset": {
    "extras": {
      "author": "The Watt Institution (https://sketchfab.com/wattinstitution)",
      "license": "CC-BY-4.0 (http://creativecommons.org/licenses/by/4.0/)",
      "source": "https://sketchfab.com/3d-models/beryl-4a5d5cfc18114d45bdae1b900a12639a",
      "title": "Beryl"
    },
    "generator": "Sketchfab-16.17.0",
    "version": "2.0"
  },
  "bufferViews": [
    {
      "buffer": 0,
      "byteLength": 1771488,
      "name": "floatBufferViews",
      "target": 34963
    },
    {
      "buffer": 0,
      "byteLength": 1241400,
      "byteOffset": 1771488,
      "byteStride": 8,
      "name": "floatBufferViews",
      "target": 34962
    },
    {
      "buffer": 0,
      "byteLength": 3724200,
      "byteOffset": 3012888,
      "byteStride": 12,
      "name": "floatBufferViews",
      "target": 34962
    }
  ],
  "buffers": [
    {
      "byteLength": 6737088,
      "uri": "scene.bin"
    }
  ],
  "extensionsUsed": [
    "KHR_materials_unlit"
  ],
  "images": [
    {
      "uri": "textures/Material.001_baseColor.png"
    }
  ],
  "materials": [
    {
      "doubleSided": true,
      "emissiveFactor": [
        0.1676829268292683,
        0.1676829268292683,
        0.1676829268292683
      ],
      "emissiveTexture": {
        "index": 0
      },
      "extensions": {
        "KHR_materials_unlit": {}
      },
      "name": "Material.001",
      "pbrMetallicRoughness": {
        "baseColorFactor": [
          0.8704268292682927,
          0.8704268292682927,
          0.8704268292682927,
          1.0
        ],
        "baseColorTexture": {
          "index": 0
        },
        "metallicFactor": 0.0
      }
    }
  ],
  "meshes": [
    {
      "name": "Object_0",
      "primitives": [
        {
          "attributes": {
            "NORMAL": 1,
            "POSITION": 0,
            "TEXCOORD_0": 2
          },
          "indices": 3,
          "material": 0,
          "mode": 4
        }
      ]
    },
    {
      "name": "Object_1",
      "primitives": [
        {
          "attributes": {
            "NORMAL": 5,
            "POSITION": 4,
            "TEXCOORD_0": 6
          },
          "indices": 7,
          "material": 0,
          "mode": 4
        }
      ]
    },
    {
      "name": "Object_2",
      "primitives": [
        {
          "attributes": {
            "NORMAL": 9,
            "POSITION": 8,
            "TEXCOORD_0": 10
          },
          "indices": 11,
          "material": 0,
          "mode": 4
        }
      ]
    }
  ],
  "nodes": [
    {
      "children": [
        1
      ],
      "matrix": [
        1.0,
        0.0,
        0.0,
        0.0,
        0.0,
        2.220446049250313e-16,
        -1.0,
        0.0,
        0.0,
        1.0,
        2.220446049250313e-16,
        0.0,
        0.0,
        0.0,
        0.0,
        1.0
      ],
      "name": "Sketchfab_model"
    },
    {
      "children": [
        2,
        3,
        4
      ],
      "name": "beryl.obj.cleaner.materialmerger.gles"
    },
    {
      "mesh": 0,
      "name": "Object_2"
    },
    {
      "mesh": 1,
      "name": "Object_3"
    },
    {
      "mesh": 2,
      "name": "Object_4"
    }
  ],
  "samplers": [
    {
      "magFilter": 9729,
      "minFilter": 9987,
      "wrapS": 10497,
      "wrapT": 10497
    }
  ],
  "scene": 0,
  "scenes": [
    {
      "name": "Sketchfab_Scene",
      "nodes": [
        0
      ]
    }
  ],
  "textures": [
    {
      "sampler": 0,
      "source": 0
    }
  ]
}
