{
  "accessors": [
    {
      "bufferView": 2,
      "componentType": 5126,
      "count": 65532,
      "max": [
        0.3605319857597351,
        0.24491000175476074,
        -0.08889900147914886
      ],
      "min": [
        -1.6198810338974,
        -0.7501149773597717,
        -1.518923044204712
      ],
      "type": "VEC3"
    },
    {
      "bufferView": 2,
      "byteOffset": 786384,
      "componentType": 5126,
      "count": 65532,
      "max": [
        0.9700216054916382,
        0.998363196849823,
        0.8915665745735168
      ],
      "min": [
        -0.9999926090240479,
        -0.9999996423721313,
        -0.9999915957450867
      ],
      "type": "VEC3"
    },
    {
      "bufferView": 1,
      "componentType": 5126,
      "count": 65532,
      "max": [
        0.5291249752044678,
        0.5108370184898376
      ],
      "min": [
        0.1907539963722229,
        0.0009749999735504389
      ],
      "type": "VEC2"
    },
    {
      "bufferView": 0,
      "componentType": 5125,
      "count": 344811,
      "type": "SCALAR"
    },
    {
      "bufferView": 2,
      "byteOffset": 1572768,
      "componentType": 5126,
      "count": 65533,
      "max": [
        0.5746380090713501,
        0.30882200598716736,
        1.6146659851074219
      ],
      "min": [
        -1.521185040473938,
        -0.8319709897041321,
        -1.520022988319397
      ],
      "type": "VEC3"
    },
    {
      "bufferView": 2,
      "byteOffset": 2359164,
      "componentType": 5126,
      "count": 65533,
      "max": [
        0.9831110239028931,
        0.97879558801651,
        0.9980536103248596
      ],
      "min": [
        -0.9999926090240479,
        -0.9999938607215881,
        -0.999935507774353
      ],
      "type": "VEC3"
    },
    {
      "bufferView": 1,
      "byteOffset": 524256,
      "componentType": 5126,
      "count": 65533,
      "max": [
        0.9863839745521545,
        0.971526026725769
      ],
      "min": [
        5.400000009103678e-05,
        0.04849399998784065
      ],
      "type": "VEC2"
    },
    {
      "bufferView": 0,
      "byteOffset": 1379244,
      "componentType": 5125,
      "count": 329412,
      "type": "SCALAR"
    },
    {
      "bufferView": 2,
      "byteOffset": 3145560,
      "componentType": 5126,
      "count": 65532,
      "max": [
        1.3043639659881592,
        0.31746599078178406,
        1.347648024559021
      ],
      "min": [
        -1.3560550212860107,
        -0.7649379968643188,
        -1.5204190015792847
      ],
      "type": "VEC3"
    },
    {
      "bufferView": 2,
      "byteOffset": 3931944,
      "componentType": 5126,
      "count": 65532,
      "max": [
        0.9883733987808228,
        0.9965977072715759,
        0.9999547600746155
      ],
      "min": [
        -0.9999976754188538,
        -0.9999983310699463,
        -0.9994239807128906
      ],
      "type": "VEC3"
    },
    {
      "bufferView": 1,
      "byteOffset": 1048520,
      "componentType": 5126,
      "count": 65532,
      "max": [
        0.9596149921417236,
        0.9997010231018066
      ],
      "min": [
        0.03566199913620949,
        0.026135999709367752
      ],
      "type": "VEC2"
    },
    {
      "bufferView": 0,
      "byteOffset": 2696892,
      "componentType": 5125,
      "count": 323169,
      "type": "SCALAR"
    },
    {
      "bufferView": 2,
      "byteOffset": 4718328,
      "componentType": 5126,
      "count": 65532,
      "max": [
        1.3776509761810303,
        1.0281469821929932,
        1.3342180252075195
      ],
      "min": [
        -1.2915810346603394,
        -0.7359340190887451,
        -1.5205719470977783
      ],
      "type": "VEC3"
    },
    {
      "bufferView": 2,
      "byteOffset": 5504712,
      "componentType": 5126,
      "count": 65532,
      "max": [
        0.9999067783355713,
        0.999977707862854,
        0.9999988079071045
      ],
      "min": [
        -0.9999777674674988,
        -0.999992311000824,
        -0.9993578195571899
      ],
      "type": "VEC3"
    },
    {
      "bufferView": 1,
      "byteOffset": 1572776,
      "componentType": 5126,
      "count": 65532,
      "max": [
        0.9866970181465149,
        0.8988100290298462
      ],
      "min": [
        0.04270600154995918,
        0.00027600000612437725
      ],
      "type": "VEC2"
    },
    {
      "bufferView": 0,
      "byteOffset": 3989568,
      "componentType": 5125,
      "count": 305211,
      "type": "SCALAR"
    },
    {
      "bufferView": 2,
      "byteOffset": 6291096,
      "componentType": 5126,
      "count": 65532,
      "max": [
        0.971248984336853,
        0.9139459729194641,
        1.6146659851074219
      ],
      "min": [
        -1.2252060174942017,
        -0.8376250267028809,
        -1.519618034362793
      ],
      "type": "VEC3"
    },
    {
      "bufferView": 2,
      "byteOffset": 7077480,
      "componentType": 5126,
      "count": 65532,
      "max": [
        0.9992751479148865,
        0.9998360872268677,
        0.9999942779541016
      ],
      "min": [
        -0.9999557137489319,
        -0.9999703764915466,
        -0.9999983310699463
      ],
      "type": "VEC3"
    },
    {
      "bufferView": 1,
      "byteOffset": 2097032,
      "componentType": 5126,
      "count": 65532,
      "max": [
        0.982903003692627,
        0.9892299771308899
      ],
      "min": [
        0.01228800043463707,
        0.0003699999942909926
      ],
      "type": "VEC2"
    },
    {
      "bufferView": 0,
      "byteOffset": 5210412,
      "componentType": 5125,
      "count": 298926,
      "type": "SCALAR"
    },
    {
      "bufferView": 2,
      "byteOffset": 7863864,
      "componentType": 5126,
      "count": 65532,
      "max": [
        1.2792270183563232,
        0.9467030167579651,
        1.6163359880447388
      ],
      "min": [
        -1.076138973236084,
        -0.8674129843711853,
        -1.4643230438232422
      ],
      "type": "VEC3"
    },
    {
      "bufferView": 2,
      "byteOffset": 8650248,
      "componentType": 5126,
      "count": 65532,
      "max": [
        0.9986844062805176,
        0.9996864795684814,
        0.9999514818191528
      ],
      "min": [
        -0.9999819397926331,
        -0.9999996423721313,
        -0.9999423027038574
      ],
      "type": "VEC3"
    },
    {
      "bufferView": 1,
      "byteOffset": 2621288,
      "componentType": 5126,
      "count": 65532,
      "max": [
        0.9839249849319458,
        0.9944630265235901
      ],
      "min": [
        0.0003809999907389283,
        0.012462000362575054
      ],
      "type": "VEC2"
    },
    {
      "bufferView": 0,
      "byteOffset": 6406116,
      "componentType": 5125,
      "count": 292566,
      "type": "SCALAR"
    },
    {
      "bufferView": 2,
      "byteOffset": 9436632,
      "componentType": 5126,
      "count": 65532,
      "max": [
        1.3792059421539307,
        0.9935259819030762,
        1.0047969818115234
      ],
      "min": [
        -0.6005859971046448,
        -0.871882975101471,
        -1.1380250453948975
      ],
      "type": "VEC3"
    },
    {
      "bufferView": 2,
      "byteOffset": 10223016,
      "componentType": 5126,
      "count": 65532,
      "max": [
        0.9991270899772644,
        0.9999450445175171,
        0.9997896552085876
      ],
      "min": [
        -0.9989053606987,
        -0.9999946355819702,
        -0.9999969601631165
      ],
      "type": "VEC3"
    },
    {
      "bufferView": 1,
      "byteOffset": 3145544,
      "componentType": 5126,
      "count": 65532,
      "max": [
        0.9849500060081482,
        0.9999269843101501
      ],
      "min": [
        0.21828700602054596,
        0.06181100010871887
      ],
      "type": "VEC2"
    },
    {
      "bufferView": 0,
      "byteOffset": 7576380,
      "componentType": 5125,
      "count": 340461,
      "type": "SCALAR"
    },
    {
      "bufferView": 2,
      "byteOffset": 11009400,
      "componentType": 5126,
      "count": 65532,
      "max": [
        1.0956690311431885,
        1.0176689624786377,
        1.0989749431610107
      ],
      "min": [
        -0.6095569729804993,
        -0.793690025806427,
        -1.210440993309021
      ],
      "type": "VEC3"
    },
    {
      "bufferView": 2,
      "byteOffset": 11795784,
      "componentType": 5126,
      "count": 65532,
      "max": [
        0.999782383441925,
        0.9999997019767761,
        0.9999988079071045
      ],
      "min": [
        -0.9260063767433167,
        -1.0,
        -0.9999996423721313
      ],
      "type": "VEC3"
    },
    {
      "bufferView": 1,
      "byteOffset": 3669800,
      "componentType": 5126,
      "count": 65532,
      "max": [
        0.9820989966392517,
        0.9801260232925415
      ],
      "min": [
        0.26181700825691223,
        0.04245299845933914
      ],
      "type": "VEC2"
    },
    {
      "bufferView": 0,
      "byteOffset": 8938224,
      "componentType": 5125,
      "count": 334323,
      "type": "SCALAR"
    },
    {
      "bufferView": 2,
      "byteOffset": 12582168,
      "componentType": 5126,
      "count": 65532,
      "max": [
        1.9106190204620361,
        0.9586840271949768,
        1.0208170413970947
      ],
      "min": [
        0.33099400997161865,
        -0.8544380068778992,
        -0.9319760203361511
      ],
      "type": "VEC3"
    },
    {
      "bufferView": 2,
      "byteOffset": 13368552,
      "componentType": 5126,
      "count": 65532,
      "max": [
        0.9999971389770508,
        0.9999997615814209,
        0.9999572038650513
      ],
      "min": [
        -0.9946468472480774,
        -0.9999708533287048,
        -0.999981164932251
      ],
      "type": "VEC3"
    },
    {
      "bufferView": 1,
      "byteOffset": 4194056,
      "componentType": 5126,
      "count": 65532,
      "max": [
        0.9806770086288452,
        0.9896519780158997
      ],
      "min": [
        0.22279800474643707,
        0.045492999255657196
      ],
      "type": "VEC2"
    },
    {
      "bufferView": 0,
      "byteOffset": 10275516,
      "componentType": 5125,
      "count": 299193,
      "type": "SCALAR"
    },
    {
      "bufferView": 2,
      "byteOffset": 14154936,
      "componentType": 5126,
      "count": 65532,
      "max": [
        1.9103649854660034,
        0.8999829888343811,
        0.9750409722328186
      ],
      "min": [
        0.6185320019721985,
        -0.8718109726905823,
        -0.8145639896392822
      ],
      "type": "VEC3"
    },
    {
      "bufferView": 2,
      "byteOffset": 14941320,
      "componentType": 5126,
      "count": 65532,
      "max": [
        0.9999622106552124,
        0.9999586939811707,
        0.9999202489852905
      ],
      "min": [
        -0.9989053606987,
        -0.999997079372406,
        -0.9999861121177673
      ],
      "type": "VEC3"
    },
    {
      "bufferView": 1,
      "byteOffset": 4718312,
      "componentType": 5126,
      "count": 65532,
      "max": [
        0.9825230240821838,
        0.9974790215492249
      ],
      "min": [
        0.22787199914455414,
        0.042851001024246216
      ],
      "type": "VEC2"
    },
    {
      "bufferView": 0,
      "byteOffset": 11472288,
      "componentType": 5125,
      "count": 307377,
      "type": "SCALAR"
    },
    {
      "bufferView": 2,
      "byteOffset": 15727704,
      "componentType": 5126,
      "count": 65532,
      "max": [
        1.9103419780731201,
        0.8706079721450806,
        0.9642459750175476
      ],
      "min": [
        -0.6603090167045593,
        -0.870203971862793,
        -1.3185110092163086
      ],
      "type": "VEC3"
    },
    {
      "bufferView": 2,
      "byteOffset": 16514088,
      "componentType": 5126,
      "count": 65532,
      "max": [
        0.9999971389770508,
        0.9999872446060181,
        0.9999202489852905
      ],
      "min": [
        -0.9928889274597168,
        -0.9999663233757019,
        -0.9999839067459106
      ],
      "type": "VEC3"
    },
    {
      "bufferView": 1,
      "byteOffset": 5242568,
      "componentType": 5126,
      "count": 65532,
      "max": [
        0.9865530133247375,
        0.9912769794464111
      ],
      "min": [
        0.22405600547790527,
        0.06057799980044365
      ],
      "type": "VEC2"
    },
    {
      "bufferView": 0,
      "byteOffset": 12701796,
      "componentType": 5125,
      "count": 314904,
      "type": "SCALAR"
    },
    {
      "bufferView": 2,
      "byteOffset": 17300472,
      "componentType": 5126,
      "count": 65532,
      "max": [
        1.8402080535888672,
        1.024111032485962,
        1.1508179903030396
      ],
      "min": [
        -0.6823340058326721,
        -0.8544420003890991,
        -1.0065120458602905
      ],
      "type": "VEC3"
    },
    {
      "bufferView": 2,
      "byteOffset": 18086856,
      "componentType": 5126,
      "count": 65532,
      "max": [
        0.999782919883728,
        0.9999869465827942,
        0.9999521374702454
      ],
      "min": [
        -0.9999202489852905,
        -0.9999992847442627,
        -0.9999861121177673
      ],
      "type": "VEC3"
    },
    {
      "bufferView": 1,
      "byteOffset": 5766824,
      "componentType": 5126,
      "count": 65532,
      "max": [
        0.9841639995574951,
        0.9981949925422668
      ],
      "min": [
        0.19574999809265137,
        0.043352000415325165
      ],
      "type": "VEC2"
    },
    {
      "bufferView": 0,
      "byteOffset": 13961412,
      "componentType": 5125,
      "count": 257205,
      "type": "SCALAR"
    },
    {
      "bufferView": 2,
      "byteOffset": 18873240,
      "componentType": 5126,
      "count": 65532,
      "max": [
        0.2912069857120514,
        1.0265710353851318,
        1.5037930011749268
      ],
      "min": [
        -0.8467919826507568,
        -0.7708349823951721,
        -1.1121840476989746
      ],
      "type": "VEC3"
    },
    {
      "bufferView": 2,
      "byteOffset": 19659624,
      "componentType": 5126,
      "count": 65532,
      "max": [
        0.99946129322052,
        0.9999642968177795,
        0.9999870657920837
      ],
      "min": [
        -0.9999375343322754,
        -0.9999946355819702,
        -0.9999912977218628
      ],
      "type": "VEC3"
    },
    {
      "bufferView": 1,
      "byteOffset": 6291080,
      "componentType": 5126,
      "count": 65532,
      "max": [
        0.9847310185432434,
        0.92774498462677
      ],
      "min": [
        0.19222000241279602,
        0.0028909998945891857
      ],
      "type": "VEC2"
    },
    {
      "bufferView": 0,
      "byteOffset": 14990232,
      "componentType": 5125,
      "count": 277131,
      "type": "SCALAR"
    },
    {
      "bufferView": 2,
      "byteOffset": 20446008,
      "componentType": 5126,
      "count": 45430,
      "max": [
        -0.20439499616622925,
        0.9842129945755005,
        1.6079250574111938
      ],
      "min": [
        -0.8694990277290344,
        -0.8194500207901001,
        -1.3484619855880737
      ],
      "type": "VEC3"
    },
    {
      "bufferView": 2,
      "byteOffset": 20991168,
      "componentType": 5126,
      "count": 45430,
      "max": [
        0.9972240328788757,
        0.999168336391449,
        0.9999448657035828
      ],
      "min": [
        -0.9999819397926331,
        -0.9999983310699463,
        -0.9999915957450867
      ],
      "type": "VEC3"
    },
    {
      "bufferView": 1,
      "byteOffset": 6815336,
      "componentType": 5126,
      "count": 45430,
      "max": [
        0.9844740033149719,
        0.9834409952163696
      ],
      "min": [
        0.057284001260995865,
        5.0999999075429514e-05
      ],
      "type": "VEC2"
    },
    {
      "bufferView": 0,
      "byteOffset": 16098756,
      "componentType": 5125,
      "count": 161595,
      "type": "SCALAR"
    }
  ],
  "asset": {
    "extras": {
      "author": "rocksandminerals (https://sketchfab.com/rocksandminerals)",
      "license": "CC-BY-4.0 (http://creativecommons.org/licenses/by/4.0/)",
      "source": "https://sketchfab.com/3d-models/spurrite-on-blue-calcite-5-30-2020-e20c18a9f0a64d088a588935dcc3eed9",
      "title": "Spurrite on blue calcite 5-30-2020"
    },
    "generator": "Sketchfab-14.88.0",
    "version": "2.0"
  },
  "bufferViews": [
    {
      "buffer": 0,
      "byteLength": 16745136,
      "name": "floatBufferViews",
      "target": 34963
    },
    {
      "buffer": 0,
      "byteLength": 7178776,
      "byteOffset": 16745136,
      "byteStride": 8,
      "name": "floatBufferViews",
      "target": 34962
    },
    {
      "buffer": 0,
      "byteLength": 21536328,
      "byteOffset": 23923912,
      "byteStride": 12,
      "name": "floatBufferViews",
      "target": 34962
    }
  ],
  "buffers": [
    {
      "byteLength": 45460240,
      "uri": "scene.bin"
    }
  ],
  "extensionsUsed": [
    "KHR_materials_unlit"
  ],
  "images": [
    {
      "uri": "textures/model_baseColor.jpeg"
    }
  ],
  "materials": [
    {
      "doubleSided": true,
      "extensions": {
        "KHR_materials_unlit": {}
      },
      "name": "model",
      "pbrMetallicRoughness": {
        "baseColorTexture": {
          "index": 0
        },
        "metallicFactor": 0.0
      }
    }
  ],
  "meshes": [
    {
      "name": "Object_0",
      "primitives": [
        {
          "attributes": {
            "NORMAL": 1,
            "POSITION": 0,
            "TEXCOORD_0": 2
          },
          "indices": 3,
          "material": 0,
          "mode": 4
        }
      ]
    },
    {
      "name": "Object_1",
      "primitives": [
        {
          "attributes": {
            "NORMAL": 5,
            "POSITION": 4,
            "TEXCOORD_0": 6
          },
          "indices": 7,
          "material": 0,
          "mode": 4
        }
      ]
    },
    {
      "name": "Object_2",
      "primitives": [
        {
          "attributes": {
            "NORMAL": 9,
            "POSITION": 8,
            "TEXCOORD_0": 10
          },
          "indices": 11,
          "material": 0,
          "mode": 4
        }
      ]
    },
    {
      "name": "Object_3",
      "primitives": [
        {
          "attributes": {
            "NORMAL": 13,
            "POSITION": 12,
            "TEXCOORD_0": 14
          },
          "indices": 15,
          "material": 0,
          "mode": 4
        }
      ]
    },
    {
      "name": "Object_4",
      "primitives": [
        {
          "attributes": {
            "NORMAL": 17,
            "POSITION": 16,
            "TEXCOORD_0": 18
          },
          "indices": 19,
          "material": 0,
          "mode": 4
        }
      ]
    },
    {
      "name": "Object_5",
      "primitives": [
        {
          "attributes": {
            "NORMAL": 21,
            "POSITION": 20,
            "TEXCOORD_0": 22
          },
          "indices": 23,
          "material": 0,
          "mode": 4
        }
      ]
    },
    {
      "name": "Object_6",
      "primitives": [
        {
          "attributes": {
            "NORMAL": 25,
            "POSITION": 24,
            "TEXCOORD_0": 26
          },
          "indices": 27,
          "material": 0,
          "mode": 4
        }
      ]
    },
    {
      "name": "Object_7",
      "primitives": [
        {
          "attributes": {
            "NORMAL": 29,
            "POSITION": 28,
            "TEXCOORD_0": 30
          },
          "indices": 31,
          "material": 0,
          "mode": 4
        }
      ]
    },
    {
      "name": "Object_8",
      "primitives": [
        {
          "attributes": {
            "NORMAL": 33,
            "POSITION": 32,
            "TEXCOORD_0": 34
          },
          "indices": 35,
          "material": 0,
          "mode": 4
        }
      ]
    },
    {
      "name": "Object_9",
      "primitives": [
        {
          "attributes": {
            "NORMAL": 37,
            "POSITION": 36,
            "TEXCOORD_0": 38
          },
          "indices": 39,
          "material": 0,
          "mode": 4
        }
      ]
    },
    {
      "name": "Object_10",
      "primitives": [
        {
          "attributes": {
            "NORMAL": 41,
            "POSITION": 40,
            "TEXCOORD_0": 42
          },
          "indices": 43,
          "material": 0,
          "mode": 4
        }
      ]
    },
    {
      "name": "Object_11",
      "primitives": [
        {
          "attributes": {
            "NORMAL": 45,
            "POSITION": 44,
            "TEXCOORD_0": 46
          },
          "indices": 47,
          "material": 0,
          "mode": 4
        }
      ]
    },
    {
      "name": "Object_12",
      "primitives": [
        {
          "attributes": {
            "NORMAL": 49,
            "POSITION": 48,
            "TEXCOORD_0": 50
          },
          "indices": 51,
          "material": 0,
          "mode": 4
        }
      ]
    },
    {
      "name": "Object_13",
      "primitives": [
        {
          "attributes": {
            "NORMAL": 53,
            "POSITION": 52,
            "TEXCOORD_0": 54
          },
          "indices": 55,
          "material": 0,
          "mode": 4
        }
      ]
    }
  ],
  "nodes": [
    {
      "children": [
        1
      ],
      "matrix": [
        1.0,
        0.0,
        0.0,
        0.0,
        0.0,
        2.220446049250313e-16,
        -1.0,
        0.0,
        0.0,
        1.0,
        2.220446049250313e-16,
        0.0,
        0.0,
        0.0,
        0.0,
        1.0
      ],
      "name": "Sketchfab_model"
    },
    {
      "children": [
        2,
        3,
        4,
        5,
        6,
        7,
        8,
        9,
        10,
        11,
        12,
        13,
        14,
        15
      ],
      "name": "model.obj.cleaner.materialmerger.gles"
    },
    {
      "mesh": 0,
      "name": "Object_2"
    },
    {
      "mesh": 1,
      "name": "Object_3"
    },
    {
      "mesh": 2,
      "name": "Object_4"
    },
    {
      "mesh": 3,
      "name": "Object_5"
    },
    {
      "mesh": 4,
      "name": "Object_6"
    },
    {
      "mesh": 5,
      "name": "Object_7"
    },
    {
      "mesh": 6,
      "name": "Object_8"
    },
    {
      "mesh": 7,
      "name": "Object_9"
    },
    {
      "mesh": 8,
      "name": "Object_10"
    },
    {
      "mesh": 9,
      "name": "Object_11"
    },
    {
      "mesh": 10,
      "name": "Object_12"
    },
    {
      "mesh": 11,
      "name": "Object_13"
    },
    {
      "mesh": 12,
      "name": "Object_14"
    },
    {
      "mesh": 13,
      "name": "Object_15"
    }
  ],
  "samplers": [
    {
      "magFilter": 9729,
      "minFilter": 9987,
      "wrapS": 10497,
      "wrapT": 10497
    }
  ],
  "scene": 0,
  "scenes": [
    {
      "name": "Sketchfab_Scene",
      "nodes": [
        0
      ]
    }
  ],
  "textures": [
    {
      "sampler": 0,
      "source": 0
    }
  ]
}
