{
  "accessors": [
    {
      "bufferView": 2,
      "componentType": 5126,
      "count": 65534,
      "max": [
        1.3813380002975464,
        1.679429054260254,
        1.542333960533142
      ],
      "min": [
        -1.3760000467300415,
        -1.7780829668045044,
        -1.523826003074646
      ],
      "type": "VEC3"
    },
    {
      "bufferView": 2,
      "byteOffset": 786408,
      "componentType": 5126,
      "count": 65534,
      "max": [
        0.9999897480010986,
        0.9999758005142212,
        0.9999316930770874
      ],
      "min": [
        -0.9999632835388184,
        -0.9991602301597595,
        -0.9863245487213135
      ],
      "type": "VEC3"
    },
    {
      "bufferView": 1,
      "componentType": 5126,
      "count": 65534,
      "max": [
        0.9994080066680908,
        0.9991970062255859
      ],
      "min": [
        0.0022350000217556953,
        0.000859999970998615
      ],
      "type": "VEC2"
    },
    {
      "bufferView": 0,
      "componentType": 5125,
      "count": 179499,
      "type": "SCALAR"
    },
    {
      "bufferView": 2,
      "byteOffset": 1572816,
      "componentType": 5126,
      "count": 65533,
      "max": [
        1.3843090534210205,
        1.6460230350494385,
        1.4608889818191528
      ],
      "min": [
        -1.1898419857025146,
        -1.7801469564437866,
        -1.523826003074646
      ],
      "type": "VEC3"
    },
    {
      "bufferView": 2,
      "byteOffset": 2359212,
      "componentType": 5126,
      "count": 65533,
      "max": [
        0.9999954700469971,
        0.9999643564224243,
        0.9983004927635193
      ],
      "min": [
        -0.9999288320541382,
        -0.9998661279678345,
        -0.9802438020706177
      ],
      "type": "VEC3"
    },
    {
      "bufferView": 1,
      "byteOffset": 524272,
      "componentType": 5126,
      "count": 65533,
      "max": [
        0.8658159971237183,
        0.999550998210907
      ],
      "min": [
        6.399999983841553e-05,
        6.399999983841553e-05
      ],
      "type": "VEC2"
    },
    {
      "bufferView": 0,
      "byteOffset": 717996,
      "componentType": 5125,
      "count": 178089,
      "type": "SCALAR"
    },
    {
      "bufferView": 2,
      "byteOffset": 3145608,
      "componentType": 5126,
      "count": 65532,
      "max": [
        1.385820984840393,
        1.7687879800796509,
        1.5468169450759888
      ],
      "min": [
        -1.375802993774414,
        -1.763738989830017,
        -1.523826003074646
      ],
      "type": "VEC3"
    },
    {
      "bufferView": 2,
      "byteOffset": 3931992,
      "componentType": 5126,
      "count": 65532,
      "max": [
        0.999970555305481,
        0.9999620914459229,
        0.9999933242797852
      ],
      "min": [
        -0.9999322891235352,
        -0.9993205070495605,
        -0.9718475341796875
      ],
      "type": "VEC3"
    },
    {
      "bufferView": 1,
      "byteOffset": 1048536,
      "componentType": 5126,
      "count": 65532,
      "max": [
        0.9993839859962463,
        0.9987059831619263
      ],
      "min": [
        0.002363000065088272,
        0.0013409999664872885
      ],
      "type": "VEC2"
    },
    {
      "bufferView": 0,
      "byteOffset": 1430352,
      "componentType": 5125,
      "count": 167007,
      "type": "SCALAR"
    },
    {
      "bufferView": 2,
      "byteOffset": 4718376,
      "componentType": 5126,
      "count": 65532,
      "max": [
        1.373764991760254,
        1.7880090475082397,
        1.5468169450759888
      ],
      "min": [
        -1.3849270343780518,
        -1.7831699848175049,
        -1.523826003074646
      ],
      "type": "VEC3"
    },
    {
      "bufferView": 2,
      "byteOffset": 5504760,
      "componentType": 5126,
      "count": 65532,
      "max": [
        0.9999003410339355,
        0.9999755620956421,
        0.9999316930770874
      ],
      "min": [
        -0.9999399185180664,
        -0.9993205070495605,
        -0.9736213088035583
      ],
      "type": "VEC3"
    },
    {
      "bufferView": 1,
      "byteOffset": 1572792,
      "componentType": 5126,
      "count": 65532,
      "max": [
        0.9992070198059082,
        0.9991700053215027
      ],
      "min": [
        0.0026179999113082886,
        0.0013409999664872885
      ],
      "type": "VEC2"
    },
    {
      "bufferView": 0,
      "byteOffset": 2098380,
      "componentType": 5125,
      "count": 150546,
      "type": "SCALAR"
    },
    {
      "bufferView": 2,
      "byteOffset": 6291144,
      "componentType": 5126,
      "count": 55878,
      "max": [
        1.3745930194854736,
        1.7880090475082397,
        1.544988989830017
      ],
      "min": [
        -1.3849270343780518,
        -1.7837090492248535,
        -1.523826003074646
      ],
      "type": "VEC3"
    },
    {
      "bufferView": 2,
      "byteOffset": 6961680,
      "componentType": 5126,
      "count": 55878,
      "max": [
        0.9999626874923706,
        0.9999661445617676,
        0.9999316930770874
      ],
      "min": [
        -0.9999407529830933,
        -0.9973973631858826,
        -1.0
      ],
      "type": "VEC3"
    },
    {
      "bufferView": 1,
      "byteOffset": 2097048,
      "componentType": 5126,
      "count": 55878,
      "max": [
        0.9996160268783569,
        0.9991700053215027
      ],
      "min": [
        0.0033549999352544546,
        0.001016999944113195
      ],
      "type": "VEC2"
    },
    {
      "bufferView": 0,
      "byteOffset": 2700564,
      "componentType": 5125,
      "count": 94950,
      "type": "SCALAR"
    }
  ],
  "asset": {
    "extras": {
      "author": "The Watt Institution (https://sketchfab.com/wattinstitution)",
      "license": "CC-BY-4.0 (http://creativecommons.org/licenses/by/4.0/)",
      "source": "https://sketchfab.com/3d-models/lepidolite-405922e76c4f4161860cb4d79ad7654f",
      "title": "Lepidolite"
    },
    "generator": "Sketchfab-16.17.0",
    "version": "2.0"
  },
  "bufferViews": [
    {
      "buffer": 0,
      "byteLength": 3080364,
      "name": "floatBufferViews",
      "target": 34963
    },
    {
      "buffer": 0,
      "byteLength": 2544072,
      "byteOffset": 3080364,
      "byteStride": 8,
      "name": "floatBufferViews",
      "target": 34962
    },
    {
      "buffer": 0,
      "byteLength": 7632216,
      "byteOffset": 5624436,
      "byteStride": 12,
      "name": "floatBufferViews",
      "target": 34962
    }
  ],
  "buffers": [
    {
      "byteLength": 13256652,
      "uri": "scene.bin"
    }
  ],
  "extensionsUsed": [
    "KHR_materials_specular"
  ],
  "images": [
    {
      "uri": "textures/material_1.001_baseColor.png"
    }
  ],
  "materials": [
    {
      "doubleSided": true,
      "extensions": {
        "KHR_materials_specular": {
          "specularColorFactor": [
            1.0,
            1.0,
            1.0
          ],
          "specularFactor": 0.0
        }
      },
      "name": "material_1.001",
      "pbrMetallicRoughness": {
        "baseColorTexture": {
          "index": 0
        },
        "metallicFactor": 0.3277439024390244
      }
    }
  ],
  "meshes": [
    {
      "name": "Object_0",
      "primitives": [
        {
          "attributes": {
            "NORMAL": 1,
            "POSITION": 0,
            "TEXCOORD_0": 2
          },
          "indices": 3,
          "material": 0,
          "mode": 4
        }
      ]
    },
    {
      "name": "Object_1",
      "primitives": [
        {
          "attributes": {
            "NORMAL": 5,
            "POSITION": 4,
            "TEXCOORD_0": 6
          },
          "indices": 7,
          "material": 0,
          "mode": 4
        }
      ]
    },
    {
      "name": "Object_2",
      "primitives": [
        {
          "attributes": {
            "NORMAL": 9,
            "POSITION": 8,
            "TEXCOORD_0": 10
          },
          "indices": 11,
          "material": 0,
          "mode": 4
        }
      ]
    },
    {
      "name": "Object_3",
      "primitives": [
        {
          "attributes": {
            "NORMAL": 13,
            "POSITION": 12,
            "TEXCOORD_0": 14
          },
          "indices": 15,
          "material": 0,
          "mode": 4
        }
      ]
    },
    {
      "name": "Object_4",
      "primitives": [
        {
          "attributes": {
            "NORMAL": 17,
            "POSITION": 16,
            "TEXCOORD_0": 18
          },
          "indices": 19,
          "material": 0,
          "mode": 4
        }
      ]
    }
  ],
  "nodes": [
    {
      "children": [
        1
      ],
      "matrix": [
        1.0,
        0.0,
        0.0,
        0.0,
        0.0,
        2.220446049250313e-16,
        -1.0,
        0.0,
        0.0,
        1.0,
        2.220446049250313e-16,
        0.0,
        0.0,
        0.0,
        0.0,
        1.0
      ],
      "name": "Sketchfab_model"
    },
    {
      "children": [
        2,
        3,
        4,
        5,
        6
      ],
      "name": "lepidolite.obj.cleaner.materialmerger.gles"
    },
    {
      "mesh": 0,
      "name": "Object_2"
    },
    {
      "mesh": 1,
      "name": "Object_3"
    },
    {
      "mesh": 2,
      "name": "Object_4"
    },
    {
      "mesh": 3,
      "name": "Object_5"
    },
    {
      "mesh": 4,
      "name": "Object_6"
    }
  ],
  "samplers": [
    {
      "magFilter": 9729,
      "minFilter": 9987,
      "wrapS": 10497,
      "wrapT": 10497
    }
  ],
  "scene": 0,
  "scenes": [
    {
      "name": "Sketchfab_Scene",
      "nodes": [
        0
      ]
    }
  ],
  "textures": [
    {
      "sampler": 0,
      "source": 0
    }
  ]
}
