{
  "accessors": [
    {
      "bufferView": 2,
      "componentType": 5126,
      "count": 65532,
      "max": [
        63.726348876953125,
        71.09575653076172,
        5.034110069274902
      ],
      "min": [
        -54.789459228515625,
        -63.657711029052734,
        -66.03650665283203
      ],
      "type": "VEC3"
    },
    {
      "bufferView": 2,
      "byteOffset": 786384,
      "componentType": 5126,
      "count": 65532,
      "max": [
        0.9997600317001343,
        1.0,
        0.9999994039535522
      ],
      "min": [
        -0.9974169135093689,
        -0.9997772574424744,
        -0.9989976286888123
      ],
      "type": "VEC3"
    },
    {
      "bufferView": 1,
      "componentType": 5126,
      "count": 65532,
      "max": [
        0.9958000183105469,
        0.9967799782752991
      ],
      "min": [
        0.0031799999997019768,
        0.5141800045967102
      ],
      "type": "VEC2"
    },
    {
      "bufferView": 0,
      "componentType": 5125,
      "count": 327345,
      "type": "SCALAR"
    },
    {
      "bufferView": 2,
      "byteOffset": 1572768,
      "componentType": 5126,
      "count": 65532,
      "max": [
        63.77537155151367,
        71.02635192871094,
        -4.021870136260986
      ],
      "min": [
        -63.82569885253906,
        -71.09575653076172,
        -71.90001678466797
      ],
      "type": "VEC3"
    },
    {
      "bufferView": 2,
      "byteOffset": 2359152,
      "componentType": 5126,
      "count": 65532,
      "max": [
        0.9992724657058716,
        0.9998653531074524,
        0.9999944567680359
      ],
      "min": [
        -0.9999361038208008,
        -0.9999919533729553,
        -0.9997760653495789
      ],
      "type": "VEC3"
    },
    {
      "bufferView": 1,
      "byteOffset": 524256,
      "componentType": 5126,
      "count": 65532,
      "max": [
        0.9967399835586548,
        0.9968199729919434
      ],
      "min": [
        0.004259999841451645,
        0.45941001176834106
      ],
      "type": "VEC2"
    },
    {
      "bufferView": 0,
      "byteOffset": 1309380,
      "componentType": 5125,
      "count": 301353,
      "type": "SCALAR"
    },
    {
      "bufferView": 2,
      "byteOffset": 3145536,
      "componentType": 5126,
      "count": 65532,
      "max": [
        61.421119689941406,
        71.09011840820313,
        -21.42462921142578
      ],
      "min": [
        -63.837188720703125,
        -71.09575653076172,
        -72.59603881835938
      ],
      "type": "VEC3"
    },
    {
      "bufferView": 2,
      "byteOffset": 3931920,
      "componentType": 5126,
      "count": 65532,
      "max": [
        0.9999597668647766,
        0.9999881982803345,
        0.9999571442604065
      ],
      "min": [
        -0.9999648332595825,
        -0.9999919533729553,
        -0.9967563152313232
      ],
      "type": "VEC3"
    },
    {
      "bufferView": 1,
      "byteOffset": 1048512,
      "componentType": 5126,
      "count": 65532,
      "max": [
        0.9993900060653687,
        0.9971500039100647
      ],
      "min": [
        0.004610000178217888,
        0.40821000933647156
      ],
      "type": "VEC2"
    },
    {
      "bufferView": 0,
      "byteOffset": 2514792,
      "componentType": 5125,
      "count": 228450,
      "type": "SCALAR"
    },
    {
      "bufferView": 2,
      "byteOffset": 4718304,
      "componentType": 5126,
      "count": 65534,
      "max": [
        48.722328186035156,
        66.51509094238281,
        -56.888309478759766
      ],
      "min": [
        -59.465599060058594,
        -70.65263366699219,
        -72.8662109375
      ],
      "type": "VEC3"
    },
    {
      "bufferView": 2,
      "byteOffset": 5504712,
      "componentType": 5126,
      "count": 65534,
      "max": [
        0.9991310834884644,
        0.9997234344482422,
        0.9995244145393372
      ],
      "min": [
        -0.9995377659797668,
        -0.9985046982765198,
        -0.9951924085617065
      ],
      "type": "VEC3"
    },
    {
      "bufferView": 1,
      "byteOffset": 1572768,
      "componentType": 5126,
      "count": 65534,
      "max": [
        0.9993900060653687,
        0.9968799948692322
      ],
      "min": [
        0.01769999973475933,
        0.4055899977684021
      ],
      "type": "VEC2"
    },
    {
      "bufferView": 0,
      "byteOffset": 3428592,
      "componentType": 5125,
      "count": 80832,
      "type": "SCALAR"
    },
    {
      "bufferView": 2,
      "byteOffset": 6291120,
      "componentType": 5126,
      "count": 65533,
      "max": [
        37.46961975097656,
        59.80183029174805,
        -64.75755310058594
      ],
      "min": [
        -54.51668167114258,
        -66.08499908447266,
        -74.11107635498047
      ],
      "type": "VEC3"
    },
    {
      "bufferView": 2,
      "byteOffset": 7077516,
      "componentType": 5126,
      "count": 65533,
      "max": [
        0.9826498031616211,
        0.9973935484886169,
        0.9916341304779053
      ],
      "min": [
        -0.9998807311058044,
        -0.9985615611076355,
        -1.0
      ],
      "type": "VEC3"
    },
    {
      "bufferView": 1,
      "byteOffset": 2097040,
      "componentType": 5126,
      "count": 65533,
      "max": [
        0.9993900060653687,
        0.988610029220581
      ],
      "min": [
        0.09510999917984009,
        0.47231000661849976
      ],
      "type": "VEC2"
    },
    {
      "bufferView": 0,
      "byteOffset": 3751920,
      "componentType": 5125,
      "count": 67320,
      "type": "SCALAR"
    },
    {
      "bufferView": 2,
      "byteOffset": 7863912,
      "componentType": 5126,
      "count": 65532,
      "max": [
        28.60862922668457,
        51.53805923461914,
        -70.8183364868164
      ],
      "min": [
        -47.66559982299805,
        -62.86592102050781,
        -74.11119079589844
      ],
      "type": "VEC3"
    },
    {
      "bufferView": 2,
      "byteOffset": 8650296,
      "componentType": 5126,
      "count": 65532,
      "max": [
        0.9626649618148804,
        0.964113175868988,
        0.9954714179039001
      ],
      "min": [
        -0.9650222063064575,
        -0.9932212829589844,
        -1.0
      ],
      "type": "VEC3"
    },
    {
      "bufferView": 1,
      "byteOffset": 2621304,
      "componentType": 5126,
      "count": 65532,
      "max": [
        0.9993900060653687,
        0.8907600045204163
      ],
      "min": [
        0.24572999775409698,
        0.6798099875450134
      ],
      "type": "VEC2"
    },
    {
      "bufferView": 0,
      "byteOffset": 4021200,
      "componentType": 5125,
      "count": 65577,
      "type": "SCALAR"
    },
    {
      "bufferView": 2,
      "byteOffset": 9436680,
      "componentType": 5126,
      "count": 65534,
      "max": [
        54.0617790222168,
        57.73215866088867,
        -44.74810028076172
      ],
      "min": [
        -62.54798889160156,
        -70.7577133178711,
        -73.03739166259766
      ],
      "type": "VEC3"
    },
    {
      "bufferView": 2,
      "byteOffset": 10223088,
      "componentType": 5126,
      "count": 65534,
      "max": [
        0.9970788359642029,
        0.9985852837562561,
        0.9997117519378662
      ],
      "min": [
        -0.9991365671157837,
        -0.9999126195907593,
        -0.9981893301010132
      ],
      "type": "VEC3"
    },
    {
      "bufferView": 1,
      "byteOffset": 3145560,
      "componentType": 5126,
      "count": 65534,
      "max": [
        0.9993900060653687,
        0.9802299737930298
      ],
      "min": [
        0.053690001368522644,
        0.4057599902153015
      ],
      "type": "VEC2"
    },
    {
      "bufferView": 0,
      "byteOffset": 4283508,
      "componentType": 5125,
      "count": 70668,
      "type": "SCALAR"
    },
    {
      "bufferView": 2,
      "byteOffset": 11009496,
      "componentType": 5126,
      "count": 65532,
      "max": [
        63.837188720703125,
        62.128910064697266,
        -28.346189498901367
      ],
      "min": [
        -63.837188720703125,
        -71.03838348388672,
        -54.470001220703125
      ],
      "type": "VEC3"
    },
    {
      "bufferView": 2,
      "byteOffset": 11795880,
      "componentType": 5126,
      "count": 65532,
      "max": [
        0.9988375306129456,
        0.9998601675033569,
        0.9997498393058777
      ],
      "min": [
        -0.9999648332595825,
        -0.999967098236084,
        -0.9990401268005371
      ],
      "type": "VEC3"
    },
    {
      "bufferView": 1,
      "byteOffset": 3669832,
      "componentType": 5126,
      "count": 65532,
      "max": [
        0.9993900060653687,
        0.9971100091934204
      ],
      "min": [
        0.0028800000436604023,
        0.41154998540878296
      ],
      "type": "VEC2"
    },
    {
      "bufferView": 0,
      "byteOffset": 4566180,
      "componentType": 5125,
      "count": 144615,
      "type": "SCALAR"
    },
    {
      "bufferView": 2,
      "byteOffset": 12582264,
      "componentType": 5126,
      "count": 18493,
      "max": [
        63.303409576416016,
        70.7138671875,
        -27.311019897460938
      ],
      "min": [
        -63.12709045410156,
        -65.90384674072266,
        -37.096099853515625
      ],
      "type": "VEC3"
    },
    {
      "bufferView": 2,
      "byteOffset": 12804180,
      "componentType": 5126,
      "count": 18493,
      "max": [
        0.9999496936798096,
        0.999528169631958,
        0.9999491572380066
      ],
      "min": [
        -0.9994933009147644,
        -0.998460054397583,
        -0.9996052980422974
      ],
      "type": "VEC3"
    },
    {
      "bufferView": 1,
      "byteOffset": 4194088,
      "componentType": 5126,
      "count": 18493,
      "max": [
        0.9993900060653687,
        0.9916999936103821
      ],
      "min": [
        0.004220000002533197,
        0.4429199993610382
      ],
      "type": "VEC2"
    },
    {
      "bufferView": 0,
      "byteOffset": 5144640,
      "componentType": 5125,
      "count": 31224,
      "type": "SCALAR"
    }
  ],
  "asset": {
    "extras": {
      "author": "tfrank2 (https://sketchfab.com/tfrank2)",
      "license": "CC-BY-ND-4.0 (http://creativecommons.org/licenses/by-nd/4.0/)",
      "source": "https://sketchfab.com/3d-models/peat-cac9393584d24cb79dce6fa0399bfa1b",
      "title": "Peat"
    },
    "generator": "Sketchfab-12.68.0",
    "version": "2.0"
  },
  "bufferViews": [
    {
      "buffer": 0,
      "byteLength": 5269536,
      "name": "floatBufferViews",
      "target": 34963
    },
    {
      "buffer": 0,
      "byteLength": 4342032,
      "byteOffset": 5269536,
      "byteStride": 8,
      "name": "floatBufferViews",
      "target": 34962
    },
    {
      "buffer": 0,
      "byteLength": 13026096,
      "byteOffset": 9611568,
      "byteStride": 12,
      "name": "floatBufferViews",
      "target": 34962
    }
  ],
  "buffers": [
    {
      "byteLength": 22637664,
      "uri": "scene.bin"
    }
  ],
  "extensionsUsed": [
    "KHR_materials_unlit"
  ],
  "images": [
    {
      "uri": "textures/material0_baseColor.jpeg"
    }
  ],
  "materials": [
    {
      "doubleSided": true,
      "emissiveTexture": {
        "index": 0
      },
      "extensions": {
        "KHR_materials_unlit": {}
      },
      "name": "material0",
      "pbrMetallicRoughness": {
        "baseColorTexture": {
          "index": 0
        },
        "metallicFactor": 0.0
      }
    }
  ],
  "meshes": [
    {
      "name": "Object_0",
      "primitives": [
        {
          "attributes": {
            "NORMAL": 1,
            "POSITION": 0,
            "TEXCOORD_0": 2
          },
          "indices": 3,
          "material": 0,
          "mode": 4
        }
      ]
    },
    {
      "name": "Object_1",
      "primitives": [
        {
          "attributes": {
            "NORMAL": 5,
            "POSITION": 4,
            "TEXCOORD_0": 6
          },
          "indices": 7,
          "material": 0,
          "mode": 4
        }
      ]
    },
    {
      "name": "Object_2",
      "primitives": [
        {
          "attributes": {
            "NORMAL": 9,
            "POSITION": 8,
            "TEXCOORD_0": 10
          },
          "indices": 11,
          "material": 0,
          "mode": 4
        }
      ]
    },
    {
      "name": "Object_3",
      "primitives": [
        {
          "attributes": {
            "NORMAL": 13,
            "POSITION": 12,
            "TEXCOORD_0": 14
          },
          "indices": 15,
          "material": 0,
          "mode": 4
        }
      ]
    },
    {
      "name": "Object_4",
      "primitives": [
        {
          "attributes": {
            "NORMAL": 17,
            "POSITION": 16,
            "TEXCOORD_0": 18
          },
          "indices": 19,
          "material": 0,
          "mode": 4
        }
      ]
    },
    {
      "name": "Object_5",
      "primitives": [
        {
          "attributes": {
            "NORMAL": 21,
            "POSITION": 20,
            "TEXCOORD_0": 22
          },
          "indices": 23,
          "material": 0,
          "mode": 4
        }
      ]
    },
    {
      "name": "Object_6",
      "primitives": [
        {
          "attributes": {
            "NORMAL": 25,
            "POSITION": 24,
            "TEXCOORD_0": 26
          },
          "indices": 27,
          "material": 0,
          "mode": 4
        }
      ]
    },
    {
      "name": "Object_7",
      "primitives": [
        {
          "attributes": {
            "NORMAL": 29,
            "POSITION": 28,
            "TEXCOORD_0": 30
          },
          "indices": 31,
          "material": 0,
          "mode": 4
        }
      ]
    },
    {
      "name": "Object_8",
      "primitives": [
        {
          "attributes": {
            "NORMAL": 33,
            "POSITION": 32,
            "TEXCOORD_0": 34
          },
          "indices": 35,
          "material": 0,
          "mode": 4
        }
      ]
    }
  ],
  "nodes": [
    {
      "children": [
        1
      ],
      "matrix": [
        1.0,
        0.0,
        0.0,
        0.0,
        0.0,
        2.220446049250313e-16,
        -1.0,
        0.0,
        0.0,
        1.0,
        2.220446049250313e-16,
        0.0,
        0.0,
        0.0,
        0.0,
        1.0
      ],
      "name": "Sketchfab_model"
    },
    {
      "children": [
        2,
        3,
        4,
        5,
        6,
        7,
        8,
        9,
        10
      ],
      "name": "model_New Qlone_20200907_143433879.obj.cleaner.materialmerger.gles"
    },
    {
      "mesh": 0,
      "name": "Object_2"
    },
    {
      "mesh": 1,
      "name": "Object_3"
    },
    {
      "mesh": 2,
      "name": "Object_4"
    },
    {
      "mesh": 3,
      "name": "Object_5"
    },
    {
      "mesh": 4,
      "name": "Object_6"
    },
    {
      "mesh": 5,
      "name": "Object_7"
    },
    {
      "mesh": 6,
      "name": "Object_8"
    },
    {
      "mesh": 7,
      "name": "Object_9"
    },
    {
      "mesh": 8,
      "name": "Object_10"
    }
  ],
  "samplers": [
    {
      "magFilter": 9729,
      "minFilter": 9987,
      "wrapS": 10497,
      "wrapT": 10497
    }
  ],
  "scene": 0,
  "scenes": [
    {
      "name": "Sketchfab_Scene",
      "nodes": [
        0
      ]
    }
  ],
  "textures": [
    {
      "sampler": 0,
      "source": 0
    }
  ]
}
