{
  "accessors": [
    {
      "bufferView": 2,
      "componentType": 5126,
      "count": 65532,
      "max": [
        5.257214546203613,
        -3.1907927989959717,
        12.409614562988281
      ],
      "min": [
        -23.62293243408203,
        -19.921871185302734,
        -10.419183731079102
      ],
      "type": "VEC3"
    },
    {
      "bufferView": 2,
      "byteOffset": 786384,
      "componentType": 5126,
      "count": 65532,
      "max": [
        0.999984860420227,
        0.999987006187439,
        0.9999910593032837
      ],
      "min": [
        -0.9994988441467285,
        -0.9999771118164063,
        -0.9999376535415649
      ],
      "type": "VEC3"
    },
    {
      "bufferView": 1,
      "componentType": 5126,
      "count": 65532,
      "max": [
        0.9995970129966736,
        0.35473600029945374
      ],
      "min": [
        0.00024399999529123306,
        0.020558999851346016
      ],
      "type": "VEC2"
    },
    {
      "bufferView": 0,
      "componentType": 5125,
      "count": 261276,
      "type": "SCALAR"
    },
    {
      "bufferView": 2,
      "byteOffset": 1572768,
      "componentType": 5126,
      "count": 65533,
      "max": [
        -7.724842071533203,
        -2.612974166870117,
        10.985329627990723
      ],
      "min": [
        -23.632383346557617,
        -19.866865158081055,
        -10.917106628417969
      ],
      "type": "VEC3"
    },
    {
      "bufferView": 2,
      "byteOffset": 2359164,
      "componentType": 5126,
      "count": 65533,
      "max": [
        0.9996508359909058,
        0.9998365640640259,
        0.9999968409538269
      ],
      "min": [
        -0.9999880194664001,
        -0.9999896287918091,
        -0.9998251795768738
      ],
      "type": "VEC3"
    },
    {
      "bufferView": 1,
      "byteOffset": 524256,
      "componentType": 5126,
      "count": 65533,
      "max": [
        0.9995669722557068,
        0.2209469974040985
      ],
      "min": [
        0.00024399999529123306,
        0.0005799999926239252
      ],
      "type": "VEC2"
    },
    {
      "bufferView": 0,
      "byteOffset": 1045104,
      "componentType": 5125,
      "count": 267459,
      "type": "SCALAR"
    },
    {
      "bufferView": 2,
      "byteOffset": 3145560,
      "componentType": 5126,
      "count": 21062,
      "max": [
        4.389001369476318,
        -2.613102436065674,
        12.400741577148438
      ],
      "min": [
        -21.013153076171875,
        -19.905927658081055,
        -9.380971908569336
      ],
      "type": "VEC3"
    },
    {
      "bufferView": 2,
      "byteOffset": 3398304,
      "componentType": 5126,
      "count": 21062,
      "max": [
        0.9997820854187012,
        0.9999889135360718,
        0.9998738169670105
      ],
      "min": [
        -0.9999908804893494,
        -0.9998250603675842,
        -0.9989820718765259
      ],
      "type": "VEC3"
    },
    {
      "bufferView": 1,
      "byteOffset": 1048520,
      "componentType": 5126,
      "count": 21062,
      "max": [
        0.9996010065078735,
        0.35473600029945374
      ],
      "min": [
        0.00024399999529123306,
        0.0006619999767281115
      ],
      "type": "VEC2"
    },
    {
      "bufferView": 0,
      "byteOffset": 2114940,
      "componentType": 5125,
      "count": 59547,
      "type": "SCALAR"
    }
  ],
  "asset": {
    "extras": {
      "author": "Panomedia (https://sketchfab.com/panomedia)",
      "license": "CC-BY-4.0 (http://creativecommons.org/licenses/by/4.0/)",
      "source": "https://sketchfab.com/3d-models/amethyst-crystal-671adaa900014ca88993fa81c27f7e5e",
      "title": "Amethyst crystal"
    },
    "generator": "Sketchfab-12.65.0",
    "version": "2.0"
  },
  "bufferViews": [
    {
      "buffer": 0,
      "byteLength": 2353128,
      "name": "floatBufferViews",
      "target": 34963
    },
    {
      "buffer": 0,
      "byteLength": 1217016,
      "byteOffset": 2353128,
      "byteStride": 8,
      "name": "floatBufferViews",
      "target": 34962
    },
    {
      "buffer": 0,
      "byteLength": 3651048,
      "byteOffset": 3570144,
      "byteStride": 12,
      "name": "floatBufferViews",
      "target": 34962
    }
  ],
  "buffers": [
    {
      "byteLength": 7221192,
      "uri": "scene.bin"
    }
  ],
  "extensionsUsed": [
    "KHR_materials_unlit"
  ],
  "images": [
    {
      "uri": "textures/mineral-low-poly-200k_Material_u1_v1_baseColor.jpeg"
    }
  ],
  "materials": [
    {
      "doubleSided": true,
      "extensions": {
        "KHR_materials_unlit": {}
      },
      "name": "mineral-low-poly-200k_Material_u1_v1",
      "pbrMetallicRoughness": {
        "baseColorTexture": {
          "index": 0
        },
        "metallicFactor": 0.0
      }
    }
  ],
  "meshes": [
    {
      "name": "Object_0",
      "primitives": [
        {
          "attributes": {
            "NORMAL": 1,
            "POSITION": 0,
            "TEXCOORD_0": 2
          },
          "indices": 3,
          "material": 0,
          "mode": 4
        }
      ]
    },
    {
      "name": "Object_1",
      "primitives": [
        {
          "attributes": {
            "NORMAL": 5,
            "POSITION": 4,
            "TEXCOORD_0": 6
          },
          "indices": 7,
          "material": 0,
          "mode": 4
        }
      ]
    },
    {
      "name": "Object_2",
      "primitives": [
        {
          "attributes": {
            "NORMAL": 9,
            "POSITION": 8,
            "TEXCOORD_0": 10
          },
          "indices": 11,
          "material": 0,
          "mode": 4
        }
      ]
    }
  ],
  "nodes": [
    {
      "children": [
        1
      ],
      "matrix": [
        0.9779998660087585,
        0.18094585835933688,
        -0.10380201041698452,
        0.0,
        0.15797080099582672,
        -0.9673935174942017,
        -0.1979772448539736,
        0.0,
        -0.13624055683612823,
        0.17722404003143333,
        -0.9746949076652527,
        0.0,
        1.679470419883728,
        -8.623587608337404,
        8.810437202453612,
        1.0
      ],
      "name": "Sketchfab_model"
    },
    {
      "children": [
        2,
        3,
        4
      ],
      "name": "mineral-low-poly-200k-meshmixer.obj.cleaner.materialmerger.gles"
    },
    {
      "mesh": 0,
      "name": "Object_2"
    },
    {
      "mesh": 1,
      "name": "Object_3"
    },
    {
      "mesh": 2,
      "name": "Object_4"
    }
  ],
  "samplers": [
    {
      "magFilter": 9729,
      "minFilter": 9987,
      "wrapS": 10497,
      "wrapT": 10497
    }
  ],
  "scene": 0,
  "scenes": [
    {
      "name": "Sketchfab_Scene",
      "nodes": [
        0
      ]
    }
  ],
  "textures": [
    {
      "sampler": 0,
      "source": 0
    }
  ]
}
