{
  "accessors": [
    {
      "bufferView": 2,
      "componentType": 5126,
      "count": 10963,
      "max": [
        0.5109331607818604,
        0.5109331607818604,
        2.4305949211120605
      ],
      "min": [
        -0.5109331607818604,
        -0.5109331607818604,
        -0.0005706537631340325
      ],
      "type": "VEC3"
    },
    {
      "bufferView": 2,
      "byteOffset": 131556,
      "componentType": 5126,
      "count": 10963,
      "max": [
        1.0,
        1.0,
        1.0
      ],
      "min": [
        -1.0,
        -1.0,
        -1.0
      ],
      "type": "VEC3"
    },
    {
      "bufferView": 3,
      "componentType": 5126,
      "count": 10963,
      "max": [
        1.0,
        1.0,
        1.0,
        1.0
      ],
      "min": [
        -1.0,
        -1.0,
        -1.0,
        1.0
      ],
      "type": "VEC4"
    },
    {
      "bufferView": 1,
      "componentType": 5126,
      "count": 10963,
      "max": [
        0.985629141330719,
        0.9813024997711182
      ],
      "min": [
        0.017884504050016403,
        0.009298796765506268
      ],
      "type": "VEC2"
    },
    {
      "bufferView": 1,
      "byteOffset": 87704,
      "componentType": 5126,
      "count": 10963,
      "max": [
        0.985629141330719,
        0.9813024997711182
      ],
      "min": [
        0.017884504050016403,
        0.009298796765506268
      ],
      "type": "VEC2"
    },
    {
      "bufferView": 1,
      "byteOffset": 175408,
      "componentType": 5126,
      "count": 10963,
      "max": [
        0.985629141330719,
        0.9813024997711182
      ],
      "min": [
        0.017884504050016403,
        0.009298796765506268
      ],
      "type": "VEC2"
    },
    {
      "bufferView": 0,
      "componentType": 5125,
      "count": 50448,
      "type": "SCALAR"
    }
  ],
  "asset": {
    "extras": {
      "author": "lord_hypersonic (https://sketchfab.com/lord_hypersonic)",
      "license": "CC-BY-4.0 (http://creativecommons.org/licenses/by/4.0/)",
      "source": "https://sketchfab.com/3d-models/lpg-gas-cylinder-18ca9f4949fa4682a530af2fa29f6191",
      "title": "LPG Gas Cylinder"
    },
    "generator": "Sketchfab-12.68.0",
    "version": "2.0"
  },
  "bufferViews": [
    {
      "buffer": 0,
      "byteLength": 201792,
      "name": "floatBufferViews",
      "target": 34963
    },
    {
      "buffer": 0,
      "byteLength": 263112,
      "byteOffset": 201792,
      "byteStride": 8,
      "name": "floatBufferViews",
      "target": 34962
    },
    {
      "buffer": 0,
      "byteLength": 263112,
      "byteOffset": 464904,
      "byteStride": 12,
      "name": "floatBufferViews",
      "target": 34962
    },
    {
      "buffer": 0,
      "byteLength": 175408,
      "byteOffset": 728016,
      "byteStride": 16,
      "name": "floatBufferViews",
      "target": 34962
    }
  ],
  "buffers": [
    {
      "byteLength": 903424,
      "uri": "scene.bin"
    }
  ],
  "images": [
    {
      "uri": "textures/M_GasCylinder_baseColor.png"
    },
    {
      "uri": "textures/M_GasCylinder_metallicRoughness.png"
    },
    {
      "uri": "textures/M_GasCylinder_normal.png"
    }
  ],
  "materials": [
    {
      "doubleSided": true,
      "name": "M_GasCylinder",
      "normalTexture": {
        "index": 2
      },
      "pbrMetallicRoughness": {
        "baseColorTexture": {
          "index": 0
        },
        "metallicRoughnessTexture": {
          "index": 1
        }
      }
    }
  ],
  "meshes": [
    {
      "name": "LPG Gas Cylinder_M_GasCylinder_0",
      "primitives": [
        {
          "attributes": {
            "NORMAL": 1,
            "POSITION": 0,
            "TANGENT": 2,
            "TEXCOORD_0": 3,
            "TEXCOORD_1": 4,
            "TEXCOORD_2": 5
          },
          "indices": 6,
          "material": 0,
          "mode": 4
        }
      ]
    }
  ],
  "nodes": [
    {
      "children": [
        1
      ],
      "matrix": [
        1.0,
        0.0,
        0.0,
        0.0,
        0.0,
        2.220446049250313e-16,
        -1.0,
        0.0,
        0.0,
        1.0,
        2.220446049250313e-16,
        0.0,
        0.0,
        0.0,
        0.0,
        1.0
      ],
      "name": "Sketchfab_model"
    },
    {
      "children": [
        2
      ],
      "matrix": [
        0.009999999776482582,
        0.0,
        0.0,
        0.0,
        0.0,
        0.0,
        0.009999999776482582,
        0.0,
        0.0,
        -0.009999999776482582,
        0.0,
        0.0,
        0.0,
        0.0,
        0.0,
        1.0
      ],
      "name": "0d0de7e5de3243609bf2bce8d1f3f09a.fbx"
    },
    {
      "children": [
        3
      ],
      "name": "RootNode"
    },
    {
      "children": [
        4
      ],
      "matrix": [
        36.476070404052734,
        0.0,
        0.0,
        0.0,
        0.0,
        -5.942706171772546e-06,
        -36.47607040405225,
        0.0,
        0.0,
        36.47607040405225,
        -5.942706171772546e-06,
        0.0,
        0.0,
        3.814697265625e-06,
        0.0,
        1.0
      ],
      "name": "LPG Gas Cylinder"
    },
    {
      "mesh": 0,
      "name": "LPG Gas Cylinder_M_GasCylinder_0"
    }
  ],
  "samplers": [
    {
      "magFilter": 9729,
      "minFilter": 9987,
      "wrapS": 10497,
      "wrapT": 10497
    }
  ],
  "scene": 0,
  "scenes": [
    {
      "name": "Sketchfab_Scene",
      "nodes": [
        0
      ]
    }
  ],
  "textures": [
    {
      "sampler": 0,
      "source": 0
    },
    {
      "sampler": 0,
      "source": 1
    },
    {
      "sampler": 0,
      "source": 2
    }
  ]
}
