{
  "accessors": [
    {
      "bufferView": 2,
      "componentType": 5126,
      "count": 510,
      "max": [
        65.49842834472656,
        62.9144401550293,
        12.764097213745117
      ],
      "min": [
        -65.49842834472656,
        -62.9144401550293,
        -12.764097213745117
      ],
      "type": "VEC3"
    },
    {
      "bufferView": 2,
      "byteOffset": 6120,
      "componentType": 5126,
      "count": 510,
      "max": [
        0.999267041683197,
        0.998957633972168,
        1.0
      ],
      "min": [
        -0.9992671608924866,
        -0.6909065246582031,
        -1.0
      ],
      "type": "VEC3"
    },
    {
      "bufferView": 1,
      "componentType": 5126,
      "count": 510,
      "max": [
        0.9915154576301575,
        0.9855820536613464
      ],
      "min": [
        0.01573336124420166,
        0.020230889320373535
      ],
      "type": "VEC2"
    },
    {
      "bufferView": 0,
      "componentType": 5125,
      "count": 1392,
      "type": "SCALAR"
    },
    {
      "bufferView": 3,
      "componentType": 5126,
      "count": 74,
      "max": [
        2.5
      ],
      "min": [
        0.0416666679084301
      ],
      "type": "SCALAR"
    },
    {
      "bufferView": 4,
      "componentType": 5126,
      "count": 74,
      "max": [
        8.348369963028185e-17,
        0.9999858140945435,
        8.348369963028185e-17,
        1.0
      ],
      "min": [
        -8.658793641562595e-17,
        -0.8477344512939453,
        -8.658793641562595e-17,
        -0.493838906288147
      ],
      "type": "VEC4"
    }
  ],
  "animations": [
    {
      "channels": [
        {
          "sampler": 0,
          "target": {
            "node": 4,
            "path": "rotation"
          }
        }
      ],
      "name": "Take 001",
      "samplers": [
        {
          "input": 4,
          "interpolation": "LINEAR",
          "output": 5
        }
      ]
    }
  ],
  "asset": {
    "extras": {
      "author": "Aquamarine (https://sketchfab.com/galaxywav3s)",
      "license": "CC-BY-4.0 (http://creativecommons.org/licenses/by/4.0/)",
      "source": "https://sketchfab.com/3d-models/spinels-gem-3dd699ca9f234d3190de3b028dc22d90",
      "title": "Spinel's gem"
    },
    "generator": "Sketchfab-12.68.0",
    "version": "2.0"
  },
  "bufferViews": [
    {
      "buffer": 0,
      "byteLength": 5568,
      "name": "floatBufferViews",
      "target": 34963
    },
    {
      "buffer": 0,
      "byteLength": 4080,
      "byteOffset": 5568,
      "byteStride": 8,
      "name": "floatBufferViews",
      "target": 34962
    },
    {
      "buffer": 0,
      "byteLength": 12240,
      "byteOffset": 9648,
      "byteStride": 12,
      "name": "floatBufferViews",
      "target": 34962
    },
    {
      "buffer": 0,
      "byteLength": 296,
      "byteOffset": 21888,
      "name": "floatBufferViews"
    },
    {
      "buffer": 0,
      "byteLength": 1184,
      "byteOffset": 22184,
      "byteStride": 16,
      "name": "floatBufferViews"
    }
  ],
  "buffers": [
    {
      "byteLength": 23368,
      "uri": "scene.bin"
    }
  ],
  "materials": [
    {
      "doubleSided": true,
      "name": "blinn1",
      "pbrMetallicRoughness": {
        "baseColorFactor": [
          0.207792,
          0.207792,
          0.207792,
          1.0
        ],
        "metallicFactor": 0.0,
        "roughnessFactor": 0.9207483816249483
      }
    }
  ],
  "meshes": [
    {
      "name": "xxx_blinn1_0",
      "primitives": [
        {
          "attributes": {
            "NORMAL": 1,
            "POSITION": 0,
            "TEXCOORD_0": 2
          },
          "indices": 3,
          "material": 0,
          "mode": 4
        }
      ]
    }
  ],
  "nodes": [
    {
      "children": [
        1
      ],
      "matrix": [
        1.0,
        0.0,
        0.0,
        0.0,
        0.0,
        6.123232939436859e-17,
        1.0,
        0.0,
        0.0,
        -1.0,
        6.123232939436859e-17,
        0.0,
        0.0,
        0.49337375164032554,
        -25.846220016479492,
        1.0
      ],
      "name": "Sketchfab_model"
    },
    {
      "children": [
        2
      ],
      "matrix": [
        1.0,
        0.0,
        0.0,
        0.0,
        0.0,
        0.0,
        1.0,
        0.0,
        0.0,
        -1.0,
        0.0,
        0.0,
        0.0,
        0.0,
        0.0,
        1.0
      ],
      "name": "4.fbx"
    },
    {
      "children": [
        3
      ],
      "name": "Object_2"
    },
    {
      "children": [
        4
      ],
      "name": "RootNode"
    },
    {
      "children": [
        5
      ],
      "name": "xxx",
      "translation": [
        0.0,
        0.24664306640625,
        -12.923105239868164
      ]
    },
    {
      "mesh": 0,
      "name": "xxx_blinn1_0"
    }
  ],
  "scene": 0,
  "scenes": [
    {
      "name": "Sketchfab_Scene",
      "nodes": [
        0
      ]
    }
  ]
}
