{
  "accessors": [
    {
      "bufferView": 2,
      "componentType": 5126,
      "count": 3906,
      "max": [
        2.597409963607788,
        1.2430740594863892,
        5.118811130523682
      ],
      "min": [
        -2.597409963607788,
        -1.2459690570831299,
        -5.118811130523682
      ],
      "type": "VEC3"
    },
    {
      "bufferView": 2,
      "byteOffset": 46872,
      "componentType": 5126,
      "count": 3906,
      "max": [
        1.0,
        1.0,
        1.0
      ],
      "min": [
        -1.0,
        -0.9999884963035583,
        -1.0
      ],
      "type": "VEC3"
    },
    {
      "bufferView": 1,
      "componentType": 5126,
      "count": 3906,
      "max": [
        0.9980078935623169,
        0.9980080127716064
      ],
      "min": [
        0.001836907584220171,
        0.0
      ],
      "type": "VEC2"
    },
    {
      "bufferView": 0,
      "componentType": 5125,
      "count": 10410,
      "type": "SCALAR"
    }
  ],
  "asset": {
    "extras": {
      "author": "alex.yefremov (https://sketchfab.com/alex.yefremov)",
      "license": "CC-BY-4.0 (http://creativecommons.org/licenses/by/4.0/)",
      "source": "https://sketchfab.com/3d-models/gold-bar-87e4e0a9da7f4c8a9561a932d09279bd",
      "title": "gold bar"
    },
    "generator": "Sketchfab-14.13.0",
    "version": "2.0"
  },
  "bufferViews": [
    {
      "buffer": 0,
      "byteLength": 41640,
      "name": "floatBufferViews",
      "target": 34963
    },
    {
      "buffer": 0,
      "byteLength": 31248,
      "byteOffset": 41640,
      "byteStride": 8,
      "name": "floatBufferViews",
      "target": 34962
    },
    {
      "buffer": 0,
      "byteLength": 93744,
      "byteOffset": 72888,
      "byteStride": 12,
      "name": "floatBufferViews",
      "target": 34962
    }
  ],
  "buffers": [
    {
      "byteLength": 166632,
      "uri": "scene.bin"
    }
  ],
  "materials": [
    {
      "doubleSided": true,
      "name": "VRayMtl1",
      "pbrMetallicRoughness": {
        "baseColorFactor": [
          1.0,
          0.6795424696330938,
          0.0,
          1.0
        ],
        "roughnessFactor": 0.18475942021918546
      }
    }
  ],
  "meshes": [
    {
      "name": "pCube2_VRayMtl1_0",
      "primitives": [
        {
          "attributes": {
            "NORMAL": 1,
            "POSITION": 0,
            "TEXCOORD_0": 2
          },
          "indices": 3,
          "material": 0,
          "mode": 4
        }
      ]
    }
  ],
  "nodes": [
    {
      "children": [
        1
      ],
      "matrix": [
        1.0,
        0.0,
        0.0,
        0.0,
        0.0,
        2.220446049250313e-16,
        -1.0,
        0.0,
        0.0,
        1.0,
        2.220446049250313e-16,
        0.0,
        0.0,
        0.0,
        0.0,
        1.0
      ],
      "name": "Sketchfab_model"
    },
    {
      "children": [
        2
      ],
      "matrix": [
        0.009999999776482582,
        0.0,
        0.0,
        0.0,
        0.0,
        0.0,
        0.009999999776482582,
        0.0,
        0.0,
        -0.009999999776482582,
        0.0,
        0.0,
        0.0,
        0.0,
        0.0,
        1.0
      ],
      "name": "b3b91a2a07904a7fbefbad3266f9c0d3.fbx"
    },
    {
      "children": [
        3
      ],
      "name": "RootNode"
    },
    {
      "children": [
        4
      ],
      "name": "pCube2"
    },
    {
      "mesh": 0,
      "name": "pCube2_VRayMtl1_0"
    }
  ],
  "scene": 0,
  "scenes": [
    {
      "name": "Sketchfab_Scene",
      "nodes": [
        0
      ]
    }
  ]
}
